<svg width="2025" height="1930" viewBox="0 0 2025 1930" fill="none" xmlns="http://www.w3.org/2000/svg">
<g filter="url(#filter0_f_22_79)">
<path d="M353.507 755.523L47.5691 1061.46L276.354 1116.08L883.646 1723.37C981.729 1821.45 1083.4 1764.24 1121.98 1723.37L1545.94 1299.41L1165.14 918.613L944.757 1139L1107.08 1301.32L1003.19 1405.21L353.507 755.523Z" stroke="white" stroke-opacity="0.5" stroke-width="9.08571"/>
<path d="M458.16 652.398L840.868 1035.11L1061.25 814.724L899.688 653.162L1003.58 549.273L1649.83 1195.52L1976.39 868.961L1730.8 835.731L1118.92 223.856C1024.81 129.745 924.896 184.643 886.701 223.856L458.16 652.398Z" stroke="white" stroke-opacity="0.5" stroke-width="9.08571"/>
</g>
<path d="M353.507 755.723L47.5691 1061.66L276.354 1116.28L883.646 1723.57C981.729 1821.65 1083.4 1764.44 1121.98 1723.57L1545.94 1299.61L1165.14 918.813L944.757 1139.19L1107.08 1301.52L1003.19 1405.41L353.507 755.723Z" stroke="white" stroke-opacity="0.5" stroke-width="9.08571"/>
<path d="M458.16 652.597L840.868 1035.31L1061.25 814.924L899.688 653.361L1003.58 549.472L1649.83 1195.72L1976.39 869.16L1730.8 835.931L1118.92 224.056C1024.81 129.944 924.896 184.843 886.701 224.056L458.16 652.597Z" stroke="white" stroke-opacity="0.5" stroke-width="9.08571"/>
<defs>
<filter id="filter0_f_22_79" x="0.452316" y="129.19" width="2023.79" height="1691.04" filterUnits="userSpaceOnUse" color-interpolation-filters="sRGB">
<feFlood flood-opacity="0" result="BackgroundImageFix"/>
<feBlend mode="normal" in="SourceGraphic" in2="BackgroundImageFix" result="shape"/>
<feGaussianBlur stdDeviation="19.08" result="effect1_foregroundBlur_22_79"/>
</filter>
</defs>
</svg>
