<svg width="54" height="47" viewBox="0 0 54 47" fill="none" xmlns="http://www.w3.org/2000/svg">
<path d="M51.9228 2L53.17 1.91652C53.1366 1.41633 52.8075 0.984533 52.3341 0.819595C51.8607 0.654658 51.3346 0.78849 50.9975 1.15958L51.9228 2ZM49.6069 12.4669C49.6069 11.7765 49.0473 11.2169 48.3569 11.2169C47.6666 11.2169 47.1069 11.7765 47.1069 12.4669H49.6069ZM27 15.619V16.869H28.25V15.619H27ZM5.56592 2L6.73516 1.558C6.55983 1.0942 6.12694 0.777868 5.63179 0.751737C5.13664 0.725606 4.67286 0.994614 4.44969 1.43739L5.56592 2ZM19.5 34.1905L20.3803 35.0779C20.6889 34.7718 20.8163 34.3274 20.7168 33.9043C20.6173 33.4812 20.3051 33.1401 19.8924 33.0037L19.5 34.1905ZM2 40.9116V39.6616C1.44831 39.6616 0.961861 40.0232 0.802967 40.5515C0.644073 41.0799 0.850314 41.6499 1.31048 41.9542L2 40.9116ZM45.6288 5.44325L44.7056 6.28601L45.155 6.77831L45.8142 6.67942L45.6288 5.44325ZM50.6756 2.08348C50.8615 4.86023 50.6956 6.61203 50.2107 7.9661C49.7349 9.29459 48.9067 10.367 47.4964 11.7056L49.2174 13.5189C50.7537 12.0608 51.8987 10.6674 52.5643 8.80905C53.2207 6.97632 53.3644 4.82035 53.17 1.91652L50.6756 2.08348ZM49.6069 15.0442V12.6122H47.1069V15.0442H49.6069ZM49.6069 12.6122V12.4669H47.1069V12.6122H49.6069ZM25.75 13.1429V15.619H28.25V13.1429H25.75ZM37.8057 0.75C31.0736 0.75 25.75 6.56507 25.75 13.1429H28.25C28.25 7.83811 32.5596 3.25 37.8057 3.25V0.75ZM47.1069 15.0442C47.1069 30.6069 33.9171 44.0833 18.25 44.0833V46.5833C35.3242 46.5833 49.6069 31.9611 49.6069 15.0442H47.1069ZM4.39667 2.442C6.31207 7.5089 13.5113 16.869 27 16.869V14.369C14.8141 14.369 8.38568 5.9242 6.73516 1.558L4.39667 2.442ZM4.44969 1.43739C0.7643 8.74925 0.142527 15.8608 2.68934 21.8974C5.23536 27.9323 10.8431 32.6445 19.1076 35.3773L19.8924 33.0037C12.1103 30.4304 7.18506 26.1221 4.99274 20.9257C2.8012 15.7311 3.2357 9.40041 6.68215 2.56261L4.44969 1.43739ZM18.6197 33.3031C16.4216 35.4836 10.1583 39.6616 2 39.6616V42.1616C10.9581 42.1616 17.8239 37.6139 20.3803 35.0779L18.6197 33.3031ZM46.5519 4.60049C44.3933 2.23586 41.2724 0.75 37.8057 0.75V3.25C40.5443 3.25 43.0031 4.42104 44.7056 6.28601L46.5519 4.60049ZM45.8142 6.67942C48.4 6.29153 50.9387 4.94277 52.8481 2.84042L50.9975 1.15958C49.4623 2.84984 47.4405 3.90749 45.4433 4.20708L45.8142 6.67942ZM1.31048 41.9542C6.92917 45.67 12.3348 46.5833 18.25 46.5833V44.0833C12.6409 44.0833 7.76858 43.2279 2.68952 39.8689L1.31048 41.9542Z" fill="url(#paint0_angular_6_365)"/>
<defs>
<radialGradient id="paint0_angular_6_365" cx="0" cy="0" r="1" gradientUnits="userSpaceOnUse" gradientTransform="translate(27 23.6667) rotate(90) scale(21.6667 25)">
<stop offset="0.182292" stop-color="#0BE3F7"/>
<stop offset="0.796875" stop-color="#0878FC"/>
</radialGradient>
</defs>
</svg>
