<svg width="54" height="47" viewBox="0 0 54 47" fill="none" xmlns="http://www.w3.org/2000/svg">
<path d="M41.2857 44.8576L40.47 45.8047C40.7072 46.009 41.0124 46.1169 41.3253 46.107L41.2857 44.8576ZM37.0562 39.0746C36.6284 38.5327 35.8424 38.4403 35.3006 38.8681C34.7587 39.2959 34.6663 40.0819 35.0941 40.6237L37.0562 39.0746ZM38.9005 37.2804L38.4656 36.1085C38.4491 36.1147 38.4326 36.1212 38.4163 36.128L38.9005 37.2804ZM32.6935 39.1214L32.4836 37.8891C32.4768 37.8903 32.47 37.8915 32.4631 37.8928L32.6935 39.1214ZM21.6062 39.0786L21.3692 40.306L21.3768 40.3074L21.6062 39.0786ZM15.3134 37.238L14.8578 38.402L14.859 38.4025L15.3134 37.238ZM12.188 35.7824L11.493 36.8214C11.5205 36.8397 11.5486 36.857 11.5774 36.8731L12.188 35.7824ZM11.8029 35.5682L12.4969 34.5285C12.4536 34.4996 12.4085 34.4735 12.362 34.4502L11.8029 35.5682ZM11.6318 35.44L12.5156 34.5562C12.4335 34.474 12.3404 34.4038 12.2389 34.3474L11.6318 35.44ZM18.9058 40.5378C19.3335 39.9959 19.2409 39.2099 18.6989 38.7822C18.157 38.3545 17.371 38.4471 16.9433 38.989L18.9058 40.5378ZM12.7143 44.8576L12.6747 46.107C12.9929 46.117 13.303 46.0053 13.5417 45.7945L12.7143 44.8576ZM2 36.8099H0.75C0.75 36.8767 0.755365 36.9435 0.766042 37.0095L2 36.8099ZM8.16433 6.49521L7.41432 5.49522C7.22291 5.63878 7.07672 5.83427 6.99312 6.05846L8.16433 6.49521ZM20.1933 2.00036L21.4377 1.88184C21.3776 1.25072 20.8545 0.76454 20.2207 0.750656L20.1933 2.00036ZM19.3771 6.61402C19.4425 7.30127 20.0527 7.80533 20.74 7.73988C21.4272 7.67442 21.9313 7.06424 21.8658 6.37699L19.3771 6.61402ZM31.9672 6.50746C31.8793 7.19219 32.3631 7.81857 33.0478 7.90651C33.7325 7.99446 34.3589 7.51067 34.4469 6.82594L31.9672 6.50746ZM33.8064 2.00065L33.7789 0.75095C33.1607 0.764523 32.6453 1.22808 32.5665 1.84141L33.8064 2.00065ZM45.8354 6.49551L47.0066 6.05872C46.923 5.83456 46.7768 5.63909 46.5854 5.49553L45.8354 6.49551ZM52 36.8099L53.2339 37.0095C53.2446 36.9435 53.25 36.8767 53.25 36.8099H52ZM23.3611 28.0768L22.1113 28.0562C22.1112 28.063 22.1111 28.0699 22.1111 28.0768H23.3611ZM41.2857 44.8576C42.1015 43.9105 42.1015 43.9105 42.1015 43.9105C42.1015 43.9105 42.1015 43.9105 42.1014 43.9104C42.1014 43.9104 42.1012 43.9103 42.101 43.9101C42.1007 43.9098 42.1 43.9092 42.0992 43.9085C42.0975 43.907 42.0949 43.9048 42.0913 43.9017C42.0843 43.8956 42.0736 43.8864 42.0594 43.8741C42.0312 43.8497 41.9893 43.8133 41.9353 43.7663C41.8272 43.6723 41.6709 43.5356 41.4792 43.3664C41.0953 43.0278 40.5709 42.56 40.0075 42.0427C38.8531 40.9826 37.6262 39.7964 37.0562 39.0746L35.0941 40.6237C35.8085 41.5286 37.1869 42.8467 38.3166 43.8841C38.8954 44.4156 39.4327 44.8949 39.8252 45.2411C40.0216 45.4144 40.182 45.5547 40.2937 45.6519C40.3496 45.7005 40.3933 45.7384 40.4232 45.7643C40.4381 45.7772 40.4496 45.7872 40.4575 45.794C40.4614 45.7973 40.4644 45.7999 40.4665 45.8018C40.4676 45.8026 40.4684 45.8033 40.469 45.8038C40.4692 45.8041 40.4695 45.8043 40.4696 45.8044C40.4697 45.8045 40.4698 45.8046 40.4698 45.8046C40.4699 45.8047 40.47 45.8047 41.2857 44.8576ZM43.136 33.711C41.4599 34.8148 39.8752 35.5854 38.4656 36.1085L39.3354 38.4523C40.9224 37.8634 42.6767 37.007 44.511 35.7989L43.136 33.711ZM38.4163 36.128C36.3579 36.9928 34.3949 37.5636 32.4836 37.8891L32.9034 40.3536C35.0158 39.9938 37.1625 39.3665 39.3847 38.4328L38.4163 36.128ZM32.4631 37.8928C28.5334 38.6295 24.9249 38.4266 21.8356 37.8499L21.3768 40.3074C24.7084 40.9293 28.6341 41.1542 32.9238 40.35L32.4631 37.8928ZM21.8431 37.8513C19.494 37.3978 17.4704 36.7379 15.7678 36.0735L14.859 38.4025C16.6662 39.1076 18.8377 39.8172 21.3692 40.306L21.8431 37.8513ZM15.769 36.074C14.8186 35.702 13.8041 35.2546 12.7987 34.6917L11.5774 36.8731C12.7129 37.5088 13.8388 38.0032 14.8578 38.402L15.769 36.074ZM12.8831 34.7435C12.744 34.6504 12.6113 34.5856 12.5549 34.5574C12.4825 34.5212 12.4865 34.5216 12.4969 34.5285L11.109 36.6079C11.2478 36.7005 11.3803 36.7652 11.4363 36.7932C11.5083 36.8292 11.5039 36.8287 11.493 36.8214L12.8831 34.7435ZM12.362 34.4502C12.3975 34.468 12.4393 34.4938 12.4809 34.527C12.5156 34.5547 12.5392 34.5797 12.5156 34.5562L10.7479 36.3239C10.8185 36.3945 10.9756 36.5521 11.2439 36.6862L12.362 34.4502ZM12.2389 34.3474C11.8758 34.1457 11.5963 33.9758 11.411 33.8587C11.3184 33.8002 11.2494 33.755 11.2054 33.7257C11.1834 33.711 11.1677 33.7004 11.1584 33.694C11.1537 33.6908 11.1507 33.6887 11.1493 33.6877C11.1485 33.6872 11.1482 33.687 11.1483 33.6871C11.1484 33.6871 11.1486 33.6872 11.1488 33.6874C11.1489 33.6875 11.1491 33.6876 11.1493 33.6877C11.1494 33.6878 11.1495 33.6879 11.1496 33.688C11.1496 33.688 11.1497 33.688 11.1497 33.6881C11.1498 33.6881 11.1499 33.6882 10.4331 34.7123C9.71634 35.7363 9.71643 35.7364 9.71652 35.7365C9.71655 35.7365 9.71664 35.7365 9.71671 35.7366C9.71684 35.7367 9.71697 35.7368 9.71711 35.7369C9.7174 35.7371 9.71771 35.7373 9.71805 35.7375C9.71873 35.738 9.71951 35.7385 9.72039 35.7392C9.72217 35.7404 9.72436 35.7419 9.72698 35.7437C9.73221 35.7473 9.73911 35.7521 9.74767 35.7579C9.76478 35.7696 9.78851 35.7857 9.8187 35.8058C9.87906 35.8461 9.96528 35.9025 10.076 35.9725C10.2974 36.1123 10.6172 36.3063 11.0246 36.5327L12.2389 34.3474ZM16.9433 38.989C16.3692 39.7165 15.1372 40.9272 13.9832 42.0085C13.4193 42.5369 12.8943 43.0158 12.5101 43.3627C12.3182 43.536 12.1617 43.676 12.0535 43.7725C11.9994 43.8208 11.9574 43.8581 11.9291 43.8832C11.915 43.8958 11.9042 43.9053 11.8971 43.9116C11.8936 43.9147 11.8909 43.917 11.8892 43.9186C11.8883 43.9193 11.8877 43.9199 11.8873 43.9202C11.8871 43.9204 11.887 43.9205 11.8869 43.9206C11.8869 43.9206 11.8869 43.9206 11.8869 43.9206C11.8869 43.9206 11.8869 43.9206 12.7143 44.8576C13.5417 45.7945 13.5417 45.7945 13.5418 45.7944C13.5418 45.7944 13.5419 45.7943 13.542 45.7943C13.5422 45.7941 13.5424 45.7939 13.5427 45.7937C13.5432 45.7932 13.544 45.7925 13.5451 45.7916C13.5471 45.7897 13.5501 45.7871 13.5541 45.7836C13.5619 45.7767 13.5734 45.7665 13.5883 45.7533C13.6181 45.7268 13.6617 45.6881 13.7175 45.6383C13.829 45.5388 13.9893 45.3953 14.1855 45.2182C14.5776 44.8642 15.1144 44.3745 15.6926 43.8328C16.8227 42.7738 18.1959 41.4373 18.9058 40.5378L16.9433 38.989ZM12.7539 43.6082C8.42057 43.471 6.08602 41.6564 4.80565 39.9665C4.14982 39.1009 3.75168 38.2407 3.51868 37.5987C3.40262 37.2789 3.32901 37.0174 3.2855 36.8421C3.26378 36.7547 3.24967 36.6891 3.24159 36.6492C3.23755 36.6292 3.23503 36.6157 3.23382 36.609C3.23322 36.6057 3.23295 36.6041 3.23298 36.6043C3.23299 36.6044 3.23308 36.6049 3.23325 36.6059C3.23333 36.6064 3.23343 36.607 3.23355 36.6077C3.23361 36.6081 3.23371 36.6087 3.23374 36.6089C3.23385 36.6095 3.23396 36.6102 2 36.8099C0.766042 37.0095 0.766163 37.0102 0.766289 37.011C0.766337 37.0113 0.766469 37.0121 0.766567 37.0127C0.766763 37.0139 0.76698 37.0152 0.767218 37.0166C0.767696 37.0195 0.768259 37.0228 0.768913 37.0267C0.770221 37.0343 0.77189 37.0438 0.773947 37.0551C0.778061 37.0778 0.783732 37.1078 0.791185 37.1447C0.806086 37.2184 0.828146 37.3196 0.859177 37.4446C0.921166 37.6942 1.01939 38.0403 1.16867 38.4516C1.46634 39.2718 1.97286 40.3674 2.813 41.4762C4.52456 43.7353 7.54715 45.9445 12.6747 46.107L12.7539 43.6082ZM3.25 36.8099C3.25 30.0766 4.75998 22.619 6.291 16.8016C7.05407 13.9022 7.81722 11.4291 8.3891 9.68241C8.67496 8.80933 8.91277 8.11848 9.07856 7.64741C9.16145 7.41189 9.22632 7.23138 9.27015 7.11056C9.29207 7.05015 9.30873 7.00467 9.31975 6.97471C9.32527 6.95973 9.32937 6.94863 9.33202 6.94148C9.33334 6.9379 9.3343 6.93532 9.33489 6.93373C9.33519 6.93294 9.33539 6.93239 9.3355 6.9321C9.33555 6.93195 9.33557 6.93192 9.33559 6.93184C9.33558 6.93187 9.33555 6.93197 8.16433 6.49521C6.99312 6.05846 6.99304 6.05868 6.99293 6.05896C6.99286 6.05914 6.99274 6.05948 6.9926 6.05984C6.99234 6.06055 6.99198 6.06151 6.99153 6.06273C6.99062 6.06516 6.98935 6.06859 6.98771 6.07301C6.98443 6.08186 6.9797 6.09468 6.97354 6.1114C6.96124 6.14483 6.94329 6.19386 6.92006 6.25789C6.87359 6.38594 6.80602 6.57403 6.72035 6.81744C6.54903 7.30423 6.30526 8.0125 6.01321 8.90453C5.42928 10.688 4.65135 13.2091 3.87333 16.1653C2.32219 22.0592 0.75 29.7589 0.75 36.8099H3.25ZM8.91434 7.49521C11.8376 5.3027 14.6828 4.24182 16.7868 3.72841C17.8389 3.47167 18.7037 3.35237 19.2966 3.29713C19.5929 3.26953 19.8207 3.25798 19.9693 3.25323C20.0436 3.25085 20.098 3.25017 20.1312 3.25003C20.1479 3.24996 20.1592 3.25002 20.165 3.25008C20.1679 3.2501 20.1695 3.25013 20.1697 3.25013C20.1697 3.25013 20.1695 3.25013 20.1689 3.25012C20.1686 3.25011 20.1682 3.2501 20.1677 3.25009C20.1674 3.25009 20.167 3.25008 20.1669 3.25008C20.1664 3.25007 20.166 3.25006 20.1933 2.00036C20.2207 0.750656 20.2202 0.750645 20.2197 0.750633C20.2194 0.750629 20.2189 0.750617 20.2185 0.750608C20.2176 0.750591 20.2167 0.750573 20.2157 0.750554C20.2136 0.750516 20.2112 0.750474 20.2085 0.750431C20.2029 0.750345 20.196 0.750255 20.1876 0.75018C20.1709 0.750028 20.1485 0.749936 20.1207 0.750053C20.065 0.750288 19.9874 0.751366 19.8893 0.754506C19.6931 0.760784 19.4146 0.775318 19.0647 0.807912C18.3653 0.873069 17.3787 1.01061 16.1941 1.29967C13.8247 1.87786 10.6554 3.0644 7.41432 5.49522L8.91434 7.49521ZM18.949 2.11887L19.3771 6.61402L21.8658 6.37699L21.4377 1.88184L18.949 2.11887ZM34.4469 6.82594L35.0462 2.15989L32.5665 1.84141L31.9672 6.50746L34.4469 6.82594ZM33.8064 2.00065C33.8338 3.25035 33.8333 3.25036 33.8329 3.25037C33.8328 3.25037 33.8323 3.25038 33.8321 3.25038C33.8316 3.25039 33.8312 3.2504 33.8309 3.25041C33.8303 3.25042 33.83 3.25042 33.8301 3.25042C33.8303 3.25042 33.8318 3.2504 33.8347 3.25037C33.8406 3.25032 33.8519 3.25025 33.8685 3.25032C33.9018 3.25046 33.9562 3.25113 34.0305 3.25351C34.1791 3.25826 34.4069 3.2698 34.7031 3.29739C35.296 3.3526 36.1608 3.47187 37.2129 3.72859C39.3169 4.24197 42.162 5.30284 45.0853 7.49548L46.5854 5.49553C43.3444 3.06456 40.175 1.878 37.8055 1.29985C36.621 1.01081 35.6343 0.873293 34.9349 0.80816C34.5851 0.775578 34.3065 0.761055 34.1103 0.754785C34.0122 0.751649 33.9346 0.750575 33.879 0.750343C33.8511 0.750226 33.8287 0.75032 33.812 0.750472C33.8037 0.750548 33.7967 0.750639 33.7912 0.750725C33.7884 0.750768 33.786 0.75081 33.784 0.750848C33.7829 0.750867 33.782 0.750885 33.7812 0.750903C33.7808 0.750911 33.7802 0.750923 33.78 0.750927C33.7794 0.750939 33.7789 0.75095 33.8064 2.00065ZM45.8354 6.49551C44.6642 6.93229 44.6641 6.93219 44.6641 6.93216C44.6641 6.93224 44.6642 6.93227 44.6642 6.93242C44.6643 6.93271 44.6645 6.93326 44.6648 6.93405C44.6654 6.93564 44.6664 6.93822 44.6677 6.9418C44.6703 6.94895 44.6744 6.96005 44.68 6.97503C44.691 7.00499 44.7076 7.05047 44.7296 7.11087C44.7734 7.23169 44.8383 7.4122 44.9212 7.64771C45.087 8.11877 45.3248 8.80962 45.6106 9.68268C46.1826 11.4294 46.9458 13.9024 47.7089 16.8018C49.24 22.6191 50.75 30.0766 50.75 36.8099H53.25C53.25 29.7589 51.6777 22.0592 50.1265 16.1654C49.3485 13.2092 48.5705 10.6882 47.9865 8.90475C47.6945 8.01274 47.4507 7.30448 47.2794 6.8177C47.1937 6.57429 47.1261 6.38621 47.0796 6.25815C47.0564 6.19412 47.0384 6.1451 47.0261 6.11167C47.02 6.09495 47.0153 6.08213 47.012 6.07328C47.0103 6.06886 47.0091 6.06543 47.0082 6.063C47.0077 6.06178 47.0074 6.06082 47.0071 6.06011C47.007 6.05975 47.0068 6.0594 47.0068 6.05923C47.0067 6.05894 47.0066 6.05872 45.8354 6.49551ZM52 36.8099C50.766 36.6102 50.7662 36.6095 50.7663 36.6088C50.7663 36.6087 50.7664 36.608 50.7665 36.6077C50.7666 36.607 50.7667 36.6063 50.7668 36.6059C50.7669 36.6049 50.767 36.6043 50.767 36.6042C50.7671 36.6041 50.7668 36.6057 50.7662 36.609C50.765 36.6156 50.7625 36.6292 50.7584 36.6491C50.7503 36.6891 50.7362 36.7546 50.7145 36.8421C50.671 37.0173 50.5974 37.2789 50.4813 37.5987C50.2483 38.2407 49.8501 39.1008 49.1942 39.9665C47.9138 41.6564 45.5793 43.471 41.2461 43.6082L41.3253 46.107C46.4527 45.9445 49.4753 43.7352 51.1869 41.4762C52.027 40.3674 52.5336 39.2718 52.8313 38.4517C52.9806 38.0404 53.0788 37.6943 53.1408 37.4446C53.1718 37.3197 53.1939 37.2184 53.2088 37.1447C53.2163 37.1079 53.2219 37.0779 53.226 37.0552C53.2281 37.0438 53.2298 37.0343 53.2311 37.0267C53.2317 37.0229 53.2323 37.0195 53.2328 37.0167C53.233 37.0152 53.2332 37.0139 53.2334 37.0127C53.2335 37.0121 53.2337 37.0113 53.2337 37.011C53.2338 37.0103 53.2339 37.0095 52 36.8099ZM18.9947 22.0753C15.7597 22.0753 13.3786 24.8848 13.3786 28.0768H15.8786C15.8786 26.0464 17.3497 24.5753 18.9947 24.5753V22.0753ZM13.3786 28.0768C13.3786 31.2773 15.81 34.0786 18.9947 34.0786V31.5786C17.3849 31.5786 15.8786 30.0992 15.8786 28.0768H13.3786ZM18.9947 34.0786C22.23 34.0786 24.6111 31.2691 24.6111 28.0768H22.1111C22.1111 30.1074 20.64 31.5786 18.9947 31.5786V34.0786ZM24.6109 28.0974C24.6641 24.8694 22.212 22.0753 18.9947 22.0753V24.5753C20.6574 24.5753 22.1441 26.0618 22.1113 28.0562L24.6109 28.0974ZM34.6199 22.0753C31.3848 22.0753 29.0032 24.8846 29.0032 28.0768H31.5032C31.5032 26.0466 32.9745 24.5753 34.6199 24.5753V22.0753ZM29.0032 28.0768C29.0032 31.2775 31.4354 34.0786 34.6199 34.0786V31.5786C33.0099 31.5786 31.5032 30.0989 31.5032 28.0768H29.0032ZM34.6199 34.0786C37.8549 34.0786 40.236 31.269 40.236 28.0768H37.736C37.736 30.1075 36.2648 31.5786 34.6199 31.5786V34.0786ZM40.236 28.0768C40.236 24.8848 37.8549 22.0753 34.6199 22.0753V24.5753C36.2649 24.5753 37.736 26.0464 37.736 28.0768H40.236ZM13.3128 12.0263C18.5104 9.19171 22.7978 7.83881 27.0081 7.83673C31.2177 7.83464 35.4992 9.18286 40.6849 12.0251L41.8865 9.83277C36.4927 6.8765 31.7882 5.33436 27.0069 5.33673C22.2262 5.33909 17.5177 6.88545 12.1158 9.83152L13.3128 12.0263Z" fill="url(#paint0_angular_6_366)"/>
<defs>
<radialGradient id="paint0_angular_6_366" cx="0" cy="0" r="1" gradientUnits="userSpaceOnUse" gradientTransform="translate(27 23.4288) rotate(90) scale(21.4288 25)">
<stop offset="0.182292" stop-color="#0BE3F7"/>
<stop offset="0.796875" stop-color="#0878FC"/>
</radialGradient>
</defs>
</svg>
