<svg width="108" height="85" viewBox="0 0 108 85" fill="none" xmlns="http://www.w3.org/2000/svg">
<g filter="url(#filter0_b_5_139)">
<mask id="path-1-inside-1_5_139" fill="white">
<path d="M79.0147 28.4657C78.5064 28.1555 77.8711 28.1388 77.347 28.4218C68.763 33.0568 63.867 39.7961 62.0428 47.076C61.819 47.9692 61.6418 48.8686 61.5098 49.7713C61.4314 50.3071 61.9974 50.6938 62.4904 50.4679C62.9878 50.2399 63.4964 50.027 64.027 49.8218C64.592 49.6032 65.0067 49.1128 65.1377 48.5222C65.1847 48.3098 65.2347 48.0979 65.2877 47.8865C66.7492 42.0541 70.4917 36.4993 77.1978 32.3639C77.7393 32.03 78.4289 32.0488 78.9499 32.4139C85.7031 37.1471 89.1727 43.6405 90.0027 50.3747C90.1235 51.0195 90.2173 51.7179 90.2654 52.474C90.361 53.9775 90.2778 55.6911 89.9016 57.6792C89.4041 61.0547 88.2974 64.3526 86.6634 67.3793C84.6711 71.0698 81.9083 74.3193 78.54 76.7818C78.0008 77.176 77.2728 77.1855 76.7231 76.8061C73.0265 74.2548 70.0143 70.8057 67.9096 66.8822C66.9071 65.0133 66.1144 63.0443 65.5523 61.0222C65.2517 59.9404 64.0371 59.3469 63.0919 59.9549C63.038 59.9895 62.9845 60.0243 62.9312 60.0592C62.3662 60.4298 62.1126 61.1219 62.2904 61.773C62.9228 64.0904 63.823 66.3376 64.961 68.459C66.8317 71.9464 69.3564 75.1149 72.418 77.7117C73.2769 78.4402 73.1392 79.8352 72.0776 80.213C66.2443 82.2889 59.2179 82.3234 51.4288 79.051C50.8004 78.787 50.4059 78.1556 50.4516 77.4764C50.866 71.317 53.0386 66.343 56.2648 62.5362C58.7732 59.3766 62.3001 56.8262 66.7394 55.1902C70.0864 53.8854 73.7018 53.1958 77.3308 53.1428C80.1177 53.1022 82.893 53.4371 85.543 54.1468C86.5817 54.425 87.6629 53.7149 87.5948 52.6432C87.5865 52.5123 87.5766 52.3836 87.5653 52.2571C87.5081 51.6162 87.0448 51.0917 86.4224 50.9248C83.4527 50.1285 80.3616 49.7586 77.2819 49.8035C74.7559 49.8404 72.2244 50.1565 69.76 50.7512C67.1129 51.5411 65.2959 52.1219 63.6067 52.896C61.3211 53.9435 59.2538 55.3583 55.7194 58.2505C50.4534 63.2717 47.0346 70.4633 47.0346 79.6516C47.0346 80.2909 47.4001 80.8741 47.976 81.1535C57.2878 85.6717 65.9485 85.9396 73.2006 83.3588C74.4732 82.906 75.6981 82.3669 76.8717 81.7508C77.3852 81.4811 77.9983 81.4735 78.5181 81.7308C79.4568 82.1954 80.426 82.6125 81.4239 82.9779C88.6984 85.6418 97.3786 85.5138 106.619 81.1619C107.205 80.8862 107.578 80.2979 107.578 79.6516C107.578 69.6004 103.818 62.033 98.0678 57.0246C97.2755 56.3345 96.0703 56.8813 95.9206 57.9204C95.8636 58.316 95.7985 58.7201 95.7247 59.1332C95.6975 59.2851 95.7526 59.4399 95.869 59.5413C100.435 63.5177 103.666 69.4265 104.166 77.447C104.208 78.133 103.805 78.7693 103.167 79.0266C95.4714 82.1297 88.4419 81.9906 82.5757 79.8425C81.8222 79.5666 81.7025 78.5763 82.3118 78.0549C85.2929 75.5038 87.7572 72.3921 89.6079 68.9638C90.3667 67.5582 91.0239 66.0949 91.5722 64.5905C93.014 60.1446 93.5332 56.6985 93.5685 53.8585C93.5686 53.8471 93.5626 53.8368 93.5527 53.8312C93.5429 53.8256 93.5369 53.8151 93.5369 53.8038C93.5445 52.6621 93.4883 51.519 93.366 50.3803C93.1113 48.4123 92.6579 46.7338 92.1972 45.0284C92.0874 44.622 91.9772 44.2139 91.8692 43.8003C89.7711 37.9158 85.6219 32.497 79.0147 28.4657Z"/>
<path d="M84.8325 63.6213C84.8325 67.4946 81.6876 70.6346 77.8081 70.6346C73.9287 70.6346 70.7837 67.4946 70.7837 63.6213C70.7837 59.7479 73.9287 56.6079 77.8081 56.6079C81.6876 56.6079 84.8325 59.7479 84.8325 63.6213Z"/>
<path d="M41.2973 0.192497C40.8501 -0.064166 40.2992 -0.0641655 39.852 0.192498L31.6312 4.91106C31.1841 5.16773 30.9086 5.64206 30.9086 6.15539V15.5925C30.9086 16.1058 31.1841 16.5802 31.6312 16.8368L39.852 21.5554C40.2992 21.8121 40.8501 21.8121 41.2973 21.5554L49.5181 16.8368C49.9653 16.5802 50.2408 16.1058 50.2408 15.5925V6.15538C50.2408 5.64206 49.9653 5.16773 49.5181 4.91106L41.2973 0.192497Z"/>
<path d="M41.2973 35.4728C40.8501 35.2161 40.2992 35.2161 39.852 35.4728L31.6312 40.1914C31.1841 40.448 30.9086 40.9224 30.9086 41.4357V50.8728C30.9086 51.3861 31.1841 51.8605 31.6312 52.1171L39.852 56.8357C40.2992 57.0924 40.8501 57.0924 41.2973 56.8357L49.5181 52.1171C49.9653 51.8605 50.2408 51.3861 50.2408 50.8728V41.4357C50.2408 40.9224 49.9653 40.448 49.5181 40.1914L41.2973 35.4728Z"/>
<path d="M20.6916 0.192497C20.2444 -0.064166 19.6935 -0.0641655 19.2463 0.192498L11.0255 4.91106C10.5783 5.16773 10.3029 5.64206 10.3029 6.15539V15.5925C10.3029 16.1058 10.5783 16.5802 11.0255 16.8368L19.2463 21.5554C19.6935 21.8121 20.2444 21.8121 20.6916 21.5554L28.9124 16.8368C29.3596 16.5802 29.635 16.1058 29.635 15.5925V6.15538C29.635 5.64206 29.3596 5.16773 28.9124 4.91106L20.6916 0.192497Z"/>
<path d="M20.6916 35.4728C20.2444 35.2161 19.6935 35.2161 19.2463 35.4728L11.0255 40.1914C10.5783 40.448 10.3029 40.9224 10.3029 41.4357V50.8728C10.3029 51.3861 10.5783 51.8605 11.0255 52.1171L19.2463 56.8357C19.6935 57.0924 20.2444 57.0924 20.6916 56.8357L28.9124 52.1171C29.3596 51.8605 29.635 51.3861 29.635 50.8728V41.4357C29.635 40.9224 29.3596 40.448 28.9124 40.1914L20.6916 35.4728Z"/>
<path d="M30.9944 17.8326C30.5473 17.576 29.9964 17.576 29.5492 17.8326L21.3284 22.5512C20.8812 22.8079 20.6057 23.2822 20.6057 23.7955V33.2327C20.6057 33.746 20.8812 34.2203 21.3284 34.477L29.5492 39.1956C29.9964 39.4522 30.5473 39.4522 30.9944 39.1956L39.2153 34.477C39.6624 34.2203 39.9379 33.746 39.9379 33.2327V23.7955C39.9379 23.2822 39.6624 22.8079 39.2153 22.5512L30.9944 17.8326Z"/>
<path d="M51.6002 17.8326C51.153 17.576 50.6021 17.576 50.1549 17.8326L41.9341 22.5512C41.4869 22.8079 41.2115 23.2822 41.2115 23.7955V33.2327C41.2115 33.746 41.4869 34.2203 41.9341 34.477L50.1549 39.1956C50.6021 39.4522 51.153 39.4522 51.6002 39.1956L59.821 34.477C60.2682 34.2203 60.5436 33.746 60.5436 33.2327V23.7955C60.5436 23.2822 60.2682 22.8079 59.821 22.5512L51.6002 17.8326Z"/>
<path d="M10.3887 17.8326C9.94155 17.576 9.39062 17.576 8.94346 17.8326L0.72263 22.5512C0.275464 22.8079 0 23.2822 0 23.7955V33.2327C0 33.746 0.275464 34.2203 0.72263 34.477L8.94346 39.1956C9.39062 39.4522 9.94155 39.4522 10.3887 39.1956L18.6095 34.477C19.0567 34.2203 19.3322 33.746 19.3322 33.2327V23.7955C19.3322 23.2822 19.0567 22.8079 18.6095 22.5512L10.3887 17.8326Z"/>
</mask>
<path d="M79.0147 28.4657C78.5064 28.1555 77.8711 28.1388 77.347 28.4218C68.763 33.0568 63.867 39.7961 62.0428 47.076C61.819 47.9692 61.6418 48.8686 61.5098 49.7713C61.4314 50.3071 61.9974 50.6938 62.4904 50.4679C62.9878 50.2399 63.4964 50.027 64.027 49.8218C64.592 49.6032 65.0067 49.1128 65.1377 48.5222C65.1847 48.3098 65.2347 48.0979 65.2877 47.8865C66.7492 42.0541 70.4917 36.4993 77.1978 32.3639C77.7393 32.03 78.4289 32.0488 78.9499 32.4139C85.7031 37.1471 89.1727 43.6405 90.0027 50.3747C90.1235 51.0195 90.2173 51.7179 90.2654 52.474C90.361 53.9775 90.2778 55.6911 89.9016 57.6792C89.4041 61.0547 88.2974 64.3526 86.6634 67.3793C84.6711 71.0698 81.9083 74.3193 78.54 76.7818C78.0008 77.176 77.2728 77.1855 76.7231 76.8061C73.0265 74.2548 70.0143 70.8057 67.9096 66.8822C66.9071 65.0133 66.1144 63.0443 65.5523 61.0222C65.2517 59.9404 64.0371 59.3469 63.0919 59.9549C63.038 59.9895 62.9845 60.0243 62.9312 60.0592C62.3662 60.4298 62.1126 61.1219 62.2904 61.773C62.9228 64.0904 63.823 66.3376 64.961 68.459C66.8317 71.9464 69.3564 75.1149 72.418 77.7117C73.2769 78.4402 73.1392 79.8352 72.0776 80.213C66.2443 82.2889 59.2179 82.3234 51.4288 79.051C50.8004 78.787 50.4059 78.1556 50.4516 77.4764C50.866 71.317 53.0386 66.343 56.2648 62.5362C58.7732 59.3766 62.3001 56.8262 66.7394 55.1902C70.0864 53.8854 73.7018 53.1958 77.3308 53.1428C80.1177 53.1022 82.893 53.4371 85.543 54.1468C86.5817 54.425 87.6629 53.7149 87.5948 52.6432C87.5865 52.5123 87.5766 52.3836 87.5653 52.2571C87.5081 51.6162 87.0448 51.0917 86.4224 50.9248C83.4527 50.1285 80.3616 49.7586 77.2819 49.8035C74.7559 49.8404 72.2244 50.1565 69.76 50.7512C67.1129 51.5411 65.2959 52.1219 63.6067 52.896C61.3211 53.9435 59.2538 55.3583 55.7194 58.2505C50.4534 63.2717 47.0346 70.4633 47.0346 79.6516C47.0346 80.2909 47.4001 80.8741 47.976 81.1535C57.2878 85.6717 65.9485 85.9396 73.2006 83.3588C74.4732 82.906 75.6981 82.3669 76.8717 81.7508C77.3852 81.4811 77.9983 81.4735 78.5181 81.7308C79.4568 82.1954 80.426 82.6125 81.4239 82.9779C88.6984 85.6418 97.3786 85.5138 106.619 81.1619C107.205 80.8862 107.578 80.2979 107.578 79.6516C107.578 69.6004 103.818 62.033 98.0678 57.0246C97.2755 56.3345 96.0703 56.8813 95.9206 57.9204C95.8636 58.316 95.7985 58.7201 95.7247 59.1332C95.6975 59.2851 95.7526 59.4399 95.869 59.5413C100.435 63.5177 103.666 69.4265 104.166 77.447C104.208 78.133 103.805 78.7693 103.167 79.0266C95.4714 82.1297 88.4419 81.9906 82.5757 79.8425C81.8222 79.5666 81.7025 78.5763 82.3118 78.0549C85.2929 75.5038 87.7572 72.3921 89.6079 68.9638C90.3667 67.5582 91.0239 66.0949 91.5722 64.5905C93.014 60.1446 93.5332 56.6985 93.5685 53.8585C93.5686 53.8471 93.5626 53.8368 93.5527 53.8312C93.5429 53.8256 93.5369 53.8151 93.5369 53.8038C93.5445 52.6621 93.4883 51.519 93.366 50.3803C93.1113 48.4123 92.6579 46.7338 92.1972 45.0284C92.0874 44.622 91.9772 44.2139 91.8692 43.8003C89.7711 37.9158 85.6219 32.497 79.0147 28.4657Z" stroke="url(#paint0_linear_5_139)" stroke-width="6" mask="url(#path-1-inside-1_5_139)"/>
<path d="M84.8325 63.6213C84.8325 67.4946 81.6876 70.6346 77.8081 70.6346C73.9287 70.6346 70.7837 67.4946 70.7837 63.6213C70.7837 59.7479 73.9287 56.6079 77.8081 56.6079C81.6876 56.6079 84.8325 59.7479 84.8325 63.6213Z" stroke="url(#paint1_linear_5_139)" stroke-width="6" mask="url(#path-1-inside-1_5_139)"/>
<path d="M41.2973 0.192497C40.8501 -0.064166 40.2992 -0.0641655 39.852 0.192498L31.6312 4.91106C31.1841 5.16773 30.9086 5.64206 30.9086 6.15539V15.5925C30.9086 16.1058 31.1841 16.5802 31.6312 16.8368L39.852 21.5554C40.2992 21.8121 40.8501 21.8121 41.2973 21.5554L49.5181 16.8368C49.9653 16.5802 50.2408 16.1058 50.2408 15.5925V6.15538C50.2408 5.64206 49.9653 5.16773 49.5181 4.91106L41.2973 0.192497Z" stroke="url(#paint2_linear_5_139)" stroke-width="6" mask="url(#path-1-inside-1_5_139)"/>
<path d="M41.2973 35.4728C40.8501 35.2161 40.2992 35.2161 39.852 35.4728L31.6312 40.1914C31.1841 40.448 30.9086 40.9224 30.9086 41.4357V50.8728C30.9086 51.3861 31.1841 51.8605 31.6312 52.1171L39.852 56.8357C40.2992 57.0924 40.8501 57.0924 41.2973 56.8357L49.5181 52.1171C49.9653 51.8605 50.2408 51.3861 50.2408 50.8728V41.4357C50.2408 40.9224 49.9653 40.448 49.5181 40.1914L41.2973 35.4728Z" stroke="url(#paint3_linear_5_139)" stroke-width="6" mask="url(#path-1-inside-1_5_139)"/>
<path d="M20.6916 0.192497C20.2444 -0.064166 19.6935 -0.0641655 19.2463 0.192498L11.0255 4.91106C10.5783 5.16773 10.3029 5.64206 10.3029 6.15539V15.5925C10.3029 16.1058 10.5783 16.5802 11.0255 16.8368L19.2463 21.5554C19.6935 21.8121 20.2444 21.8121 20.6916 21.5554L28.9124 16.8368C29.3596 16.5802 29.635 16.1058 29.635 15.5925V6.15538C29.635 5.64206 29.3596 5.16773 28.9124 4.91106L20.6916 0.192497Z" stroke="url(#paint4_linear_5_139)" stroke-width="6" mask="url(#path-1-inside-1_5_139)"/>
<path d="M20.6916 35.4728C20.2444 35.2161 19.6935 35.2161 19.2463 35.4728L11.0255 40.1914C10.5783 40.448 10.3029 40.9224 10.3029 41.4357V50.8728C10.3029 51.3861 10.5783 51.8605 11.0255 52.1171L19.2463 56.8357C19.6935 57.0924 20.2444 57.0924 20.6916 56.8357L28.9124 52.1171C29.3596 51.8605 29.635 51.3861 29.635 50.8728V41.4357C29.635 40.9224 29.3596 40.448 28.9124 40.1914L20.6916 35.4728Z" stroke="url(#paint5_linear_5_139)" stroke-width="6" mask="url(#path-1-inside-1_5_139)"/>
<path d="M30.9944 17.8326C30.5473 17.576 29.9964 17.576 29.5492 17.8326L21.3284 22.5512C20.8812 22.8079 20.6057 23.2822 20.6057 23.7955V33.2327C20.6057 33.746 20.8812 34.2203 21.3284 34.477L29.5492 39.1956C29.9964 39.4522 30.5473 39.4522 30.9944 39.1956L39.2153 34.477C39.6624 34.2203 39.9379 33.746 39.9379 33.2327V23.7955C39.9379 23.2822 39.6624 22.8079 39.2153 22.5512L30.9944 17.8326Z" stroke="url(#paint6_linear_5_139)" stroke-width="6" mask="url(#path-1-inside-1_5_139)"/>
<path d="M51.6002 17.8326C51.153 17.576 50.6021 17.576 50.1549 17.8326L41.9341 22.5512C41.4869 22.8079 41.2115 23.2822 41.2115 23.7955V33.2327C41.2115 33.746 41.4869 34.2203 41.9341 34.477L50.1549 39.1956C50.6021 39.4522 51.153 39.4522 51.6002 39.1956L59.821 34.477C60.2682 34.2203 60.5436 33.746 60.5436 33.2327V23.7955C60.5436 23.2822 60.2682 22.8079 59.821 22.5512L51.6002 17.8326Z" stroke="url(#paint7_linear_5_139)" stroke-width="6" mask="url(#path-1-inside-1_5_139)"/>
<path d="M10.3887 17.8326C9.94155 17.576 9.39062 17.576 8.94346 17.8326L0.72263 22.5512C0.275464 22.8079 0 23.2822 0 23.7955V33.2327C0 33.746 0.275464 34.2203 0.72263 34.477L8.94346 39.1956C9.39062 39.4522 9.94155 39.4522 10.3887 39.1956L18.6095 34.477C19.0567 34.2203 19.3322 33.746 19.3322 33.2327V23.7955C19.3322 23.2822 19.0567 22.8079 18.6095 22.5512L10.3887 17.8326Z" stroke="url(#paint8_linear_5_139)" stroke-width="6" mask="url(#path-1-inside-1_5_139)"/>
</g>
<defs>
<filter id="filter0_b_5_139" x="-5.33561" y="-5.33561" width="118.249" height="95.6712" filterUnits="userSpaceOnUse" color-interpolation-filters="sRGB">
<feFlood flood-opacity="0" result="BackgroundImageFix"/>
<feGaussianBlur in="BackgroundImage" stdDeviation="2.6678"/>
<feComposite in2="SourceAlpha" operator="in" result="effect1_backgroundBlur_5_139"/>
<feBlend mode="normal" in="SourceGraphic" in2="effect1_backgroundBlur_5_139" result="shape"/>
</filter>
<linearGradient id="paint0_linear_5_139" x1="-2.11882e-07" y1="-8.60626" x2="139.852" y2="124.253" gradientUnits="userSpaceOnUse">
<stop stop-color="#0BE3F7"/>
<stop offset="1" stop-color="#0878FC"/>
</linearGradient>
<linearGradient id="paint1_linear_5_139" x1="-2.11882e-07" y1="-8.60626" x2="139.852" y2="124.253" gradientUnits="userSpaceOnUse">
<stop stop-color="#0BE3F7"/>
<stop offset="1" stop-color="#0878FC"/>
</linearGradient>
<linearGradient id="paint2_linear_5_139" x1="-2.11882e-07" y1="-8.60626" x2="139.852" y2="124.253" gradientUnits="userSpaceOnUse">
<stop stop-color="#0BE3F7"/>
<stop offset="1" stop-color="#0878FC"/>
</linearGradient>
<linearGradient id="paint3_linear_5_139" x1="-2.11882e-07" y1="-8.60626" x2="139.852" y2="124.253" gradientUnits="userSpaceOnUse">
<stop stop-color="#0BE3F7"/>
<stop offset="1" stop-color="#0878FC"/>
</linearGradient>
<linearGradient id="paint4_linear_5_139" x1="-2.11882e-07" y1="-8.60626" x2="139.852" y2="124.253" gradientUnits="userSpaceOnUse">
<stop stop-color="#0BE3F7"/>
<stop offset="1" stop-color="#0878FC"/>
</linearGradient>
<linearGradient id="paint5_linear_5_139" x1="-2.11882e-07" y1="-8.60626" x2="139.852" y2="124.253" gradientUnits="userSpaceOnUse">
<stop stop-color="#0BE3F7"/>
<stop offset="1" stop-color="#0878FC"/>
</linearGradient>
<linearGradient id="paint6_linear_5_139" x1="-2.11882e-07" y1="-8.60626" x2="139.852" y2="124.253" gradientUnits="userSpaceOnUse">
<stop stop-color="#0BE3F7"/>
<stop offset="1" stop-color="#0878FC"/>
</linearGradient>
<linearGradient id="paint7_linear_5_139" x1="-2.11882e-07" y1="-8.60626" x2="139.852" y2="124.253" gradientUnits="userSpaceOnUse">
<stop stop-color="#0BE3F7"/>
<stop offset="1" stop-color="#0878FC"/>
</linearGradient>
<linearGradient id="paint8_linear_5_139" x1="-2.11882e-07" y1="-8.60626" x2="139.852" y2="124.253" gradientUnits="userSpaceOnUse">
<stop stop-color="#0BE3F7"/>
<stop offset="1" stop-color="#0878FC"/>
</linearGradient>
</defs>
</svg>
