<svg width="100" height="94" viewBox="0 0 100 94" fill="none" xmlns="http://www.w3.org/2000/svg">
<path fill-rule="evenodd" clip-rule="evenodd" d="M10.5211 0.252979C8.59899 0.846338 6.6486 2.7063 5.92575 4.63521C5.66657 5.327 5.57926 6.39771 5.51618 9.6645L5.4361 13.8149H3.38922C-0.15062 13.8149 0.000942981 13.4364 0.000942981 22.2749C0.000942981 28.9475 0.0150055 29.2098 0.400357 29.6999C0.919107 30.359 1.86911 30.6094 3.85836 30.6106L5.46969 30.6118V41.9399V53.268H3.39938H1.32907L0.665005 53.9321L0.000942981 54.5961V61.6664V68.7368L0.665005 69.4008L1.32907 70.0649H3.38004H5.43083L5.49958 74.2153L5.56852 78.3657L6.17829 79.6352C6.51364 80.3334 7.17262 81.2903 7.64254 81.7614C8.53473 82.6559 10.5246 83.7364 11.2802 83.7366L11.7197 83.7368V87.7536C11.7197 91.9163 11.7865 92.3241 12.5726 92.961C12.9539 93.2698 13.7634 93.2987 22.117 93.3028L31.2447 93.3071L31.8826 92.7375L32.5205 92.168L32.5802 88.05L32.64 83.9321H52.8439H73.0478V88.0487V92.1653L73.6187 92.7362L74.1896 93.3071H83.3734H92.5572L93.1052 92.8362L93.6533 92.3651L93.7509 88.1344L93.8486 83.9038L95.0195 83.5088C96.548 82.9932 97.8302 82.034 98.6947 80.76C100.105 78.6807 100.012 81.5926 99.9546 41.4375L99.9033 5.3104L99.2685 4.02114C98.516 2.49263 97.2902 1.29243 95.7382 0.564893L94.6298 0.0453619L53.0283 0.00942441C17.4183 -0.0212397 11.2963 0.0137212 10.5211 0.252979ZM94.7015 4.42056C95.063 4.67856 95.5226 5.24985 95.7226 5.69009C96.0728 6.46118 96.0863 7.79028 96.0904 41.8784C96.0933 66.4163 96.031 77.4346 95.8869 77.8159C95.6043 78.5641 94.7615 79.4317 94.0013 79.7569C93.4744 79.9825 86.8103 80.0258 52.7543 80.0258C24.458 80.0258 11.9689 79.9625 11.5859 79.8174C10.8041 79.5213 10.1623 78.8789 9.74508 77.975C9.43688 77.3073 9.38395 76.6764 9.38024 73.6293L9.37594 70.0649H12.4738H15.5716L15.6752 71.2051C15.732 71.8323 15.889 72.5225 16.0242 72.7387C16.6443 73.7317 14.5463 73.6745 52.316 73.7291C76.7005 73.7643 87.7783 73.7162 88.3113 73.5727C88.8429 73.4295 89.1996 73.1719 89.4632 72.7405C89.8386 72.1264 89.8445 71.5893 89.7962 41.7002L89.747 11.2846L89.2054 10.7432L88.664 10.2016L53.0406 10.1512C30.5406 10.1194 17.2351 10.1702 16.9224 10.2889C16.1927 10.5665 15.7988 11.3096 15.6787 12.636L15.5716 13.8149H12.4591H9.34665L9.41012 9.95747C9.47028 6.30669 9.49821 6.0606 9.93219 5.36255C10.1843 4.95688 10.7117 4.45493 11.1041 4.24731C11.8033 3.8772 12.6244 3.87056 52.9306 3.9106L94.0439 3.95161L94.7015 4.42056ZM85.8902 41.8911L85.8408 69.7719H52.7353H19.6298L19.5797 42.1352C19.5521 26.935 19.5713 14.3887 19.6224 14.2543C19.6963 14.0604 26.5175 14.0102 52.8275 14.0102H85.9398L85.8902 41.8911ZM15.6259 22.2133V26.7055H9.76657H3.90719V22.2133V17.7211H9.76657H15.6259V22.2133ZM52.0517 18.875C51.0408 19.3079 50.8838 19.7553 50.8162 22.3985L50.7523 24.8875L49.156 25.2282C47.1183 25.6627 45.0066 26.5387 43.4007 27.6157C42.7054 28.0819 42.0882 28.4633 42.0289 28.4633C41.9695 28.4633 41.1574 27.7163 40.2244 26.8032C38.6045 25.218 38.4882 25.143 37.6504 25.143C36.4302 25.143 35.7431 25.8243 35.7431 27.0338C35.7431 27.8516 35.83 27.9852 37.4738 29.6928L39.2047 31.4907L38.6214 32.2719C37.3435 33.9836 35.7431 38.1278 35.7431 39.725C35.7431 40.179 35.7269 40.1821 33.3896 40.1821C30.1839 40.1821 29.4931 40.5577 29.4931 42.3002C29.4931 42.9278 29.6086 43.1741 30.0941 43.5827C30.6714 44.0686 30.792 44.0883 33.1746 44.0883H35.6541L35.9685 45.609C36.3705 47.5534 37.3324 49.861 38.4111 51.4698C38.8773 52.1651 39.2588 52.7827 39.2588 52.8422C39.2588 52.902 38.4677 53.7575 37.5009 54.7432C35.8923 56.3834 35.7431 56.6006 35.7431 57.2998C35.7431 58.2186 36.1091 58.7936 36.9035 59.1225C37.8519 59.5155 38.4474 59.2086 40.3437 57.3489L42.1289 55.5981L43.1841 56.3092C45.1201 57.6137 47.7181 58.6563 49.9521 59.0248L50.7822 59.1618V61.7032V64.2446L51.4463 64.9086C52.1568 65.6192 52.7482 65.7364 53.6197 65.3393C54.4972 64.9395 54.6884 64.2725 54.6884 61.6118V59.194L56.2998 58.8502C58.3187 58.4196 60.3349 57.5911 62.05 56.4875L63.3777 55.6334L65.1449 57.3665C66.117 58.3198 67.1464 59.1584 67.4326 59.2303C68.6341 59.5319 69.8213 58.5299 69.7847 57.2448C69.7672 56.6215 69.5451 56.3147 67.9589 54.7219L66.1531 52.9086L66.8746 51.8217C68.2505 49.7487 69.1429 47.6356 69.6043 45.3579L69.8418 44.186L72.4177 44.0883C74.9082 43.994 75.0115 43.9729 75.53 43.4536C76.2785 42.704 76.2783 41.5663 75.5296 40.8168C75.0109 40.2977 74.9072 40.2764 72.4201 40.1821L69.847 40.0844L69.6099 38.8149C69.1892 36.5629 68.0115 33.7247 66.8798 32.2362C66.6199 31.8942 66.4072 31.5405 66.4072 31.4502C66.4072 31.36 67.1099 30.5875 67.9689 29.7336C69.757 27.9559 70.0855 27.2778 69.656 26.2497C69.3097 25.4208 68.8388 25.143 67.7804 25.143C67.0398 25.143 66.8482 25.2698 65.2316 26.8282L63.4836 28.5131L62.2599 27.7178C61.5867 27.2805 60.4648 26.6561 59.7666 26.3303C58.5353 25.7557 55.7773 24.9477 55.0478 24.9477C54.7181 24.9477 54.6884 24.7469 54.6884 22.5094C54.6884 20.1225 54.6771 20.0586 54.1513 19.4815C53.5806 18.8551 52.6953 18.5993 52.0517 18.875ZM54.6884 28.8666C57.8127 29.3713 60.267 30.7014 62.5146 33.1082C66.2992 37.1608 67.0761 43.0432 64.5068 48.1899C63.4203 50.3663 61.0037 52.7487 58.79 53.8256C56.5714 54.9049 54.9988 55.2836 52.7353 55.2836C47.6744 55.2836 43.1718 52.4985 40.9445 47.9903C39.7857 45.6454 39.3552 43.5532 39.5265 41.0997C40.0615 33.4379 47.2218 27.6606 54.6884 28.8666ZM15.6259 41.9399V53.268H12.5009H9.37594V41.9399V30.6118H12.5009H15.6259V41.9399ZM51.4951 34.7229C48.3039 35.2582 45.6838 38.11 45.3851 41.3733C45.1113 44.3674 46.8361 47.3741 49.6089 48.7358C50.5707 49.2081 50.9017 49.2641 52.7353 49.2641C54.5498 49.2641 54.9144 49.2039 55.8986 48.7426C60.0361 46.8032 61.4181 41.284 58.6904 37.5938C57.0904 35.429 54.1886 34.2713 51.4951 34.7229ZM54.6209 39.1196C56.4498 40.1813 56.7929 42.7834 55.3107 44.3499C54.5349 45.17 53.8545 45.4555 52.6763 45.4555C49.6621 45.4555 48.1843 41.919 50.258 39.6686C51.4468 38.3786 53.0062 38.1823 54.6209 39.1196ZM15.6259 61.6664V66.1586H9.76657H3.90719V61.6664V57.1743H9.76657H15.6259V61.6664ZM28.7119 86.6664V89.4008H22.1689H15.6259V86.6664V83.9321H22.1689H28.7119V86.6664ZM89.8447 86.6664V89.4008H83.3994H76.9541V86.6664V83.9321H83.3994H89.8447V86.6664Z" fill="url(#paint0_linear_5_210)"/>
<defs>
<linearGradient id="paint0_linear_5_210" x1="9.5" y1="-1.69103e-06" x2="100" y2="93" gradientUnits="userSpaceOnUse">
<stop stop-color="#0BE3F7"/>
<stop offset="1" stop-color="#0874FC"/>
</linearGradient>
</defs>
</svg>
