<svg width="135" height="85" viewBox="0 0 135 85" fill="none" xmlns="http://www.w3.org/2000/svg">
<path fill-rule="evenodd" clip-rule="evenodd" d="M64.9125 0.089466C62.3965 0.318834 59.4108 1.28082 57.1475 2.59104C55.0651 3.79654 51.5748 7.24805 50.3725 9.2909C46.8516 15.2725 46.8146 23.2153 50.28 29.0645C51.5214 31.1594 53.9667 33.8479 55.6801 35.0021C56.5408 35.5816 56.8636 35.9311 56.618 36.017C54.4592 36.7724 52.5742 37.5359 51.3905 38.1345C49.6495 39.0145 45.8464 41.4938 45.3858 42.0486C45.202 42.2704 44.9554 42.4516 44.8375 42.4516C44.72 42.4516 43.714 41.7988 42.6022 41.0013C40.8524 39.7458 37.9583 38.1813 36.3839 37.6398C35.9741 37.499 36.1951 37.1596 37.825 35.4271C41.7196 31.2872 43.0578 26.3752 41.7183 21.1371C38.4506 8.36059 21.5986 5.41599 14.2892 16.3445C12.4699 19.0642 11.7415 21.4807 11.7467 24.7777C11.7535 29.243 13.3335 32.9546 16.481 35.9002L18.0884 37.4045L16.6119 38.002C13.3795 39.3101 11.0272 40.9316 8.06663 43.8925C2.96189 48.9972 0.532312 54.4476 0.159458 61.6311L0 64.7076H16.2621H32.5244L32.3776 68.177C32.2047 72.26 32.6004 74.6231 33.8993 77.2676C35.0352 79.5799 37.9049 82.4347 40.1564 83.492C43.4529 85.04 42.7316 84.9999 67.2407 84.9999H89.7586L91.6228 84.4136C95.0704 83.3291 98.5125 80.4225 100.12 77.2378C101.406 74.6899 101.744 72.6918 101.607 68.4388L101.486 64.7076H117.852H134.217L134.066 61.762C133.78 56.2066 132.301 51.8764 129.106 47.2403C126.543 43.5217 121.761 39.6293 117.882 38.1049L116.156 37.4267L118.025 35.5339C121.053 32.4655 122.457 29.0147 122.453 24.6468C122.448 18.1734 118.304 12.4947 112.015 10.343C109.395 9.44669 105.623 9.33776 103.112 10.0861C97.8496 11.654 93.6089 16.0874 92.378 21.3073C91.1809 26.3843 92.6244 31.4807 96.3733 35.4156L98.2764 37.4126L96.8276 38.0007C95.0529 38.721 92.2379 40.3813 90.7318 41.5962C90.1149 42.0939 89.464 42.4448 89.2849 42.3762C89.1061 42.3076 88.0648 41.6093 86.9708 40.8243C84.6769 39.1784 80.9777 37.2251 78.8924 36.5582C78.1003 36.305 77.3549 36.0419 77.2355 35.9738C77.1164 35.9054 77.5974 35.4601 78.3046 34.9838C79.9937 33.8461 82.4434 31.1476 83.6777 29.0645C87.1122 23.2677 87.108 15.3917 83.667 9.44773C82.412 7.27974 78.9783 3.84602 76.8103 2.59104C73.3368 0.580146 69.1602 -0.298051 64.9125 0.089466ZM70.5844 4.63467C75.9949 6.0368 80.3788 10.4561 81.632 15.7713C83.3816 23.1938 79.2561 30.7698 71.9538 33.5442C69.7989 34.363 65.7975 34.5628 63.4425 33.9689C60.5071 33.229 58.5336 32.0952 56.3745 29.9086C53.1794 26.6729 51.8678 23.5806 51.8859 19.3265C51.9047 14.9023 53.1825 11.8577 56.3656 8.65228C58.4768 6.52643 60.6995 5.21856 63.2535 4.59985C65.184 4.13195 68.7094 4.14871 70.5844 4.63467ZM29.9291 14.233C36.2815 16.1303 39.6147 23.3025 36.8997 29.2323C34.8129 33.7911 30.0234 36.4383 25.2527 35.6701C19.2562 34.7044 15.0343 29.0022 16.0003 23.1729C17.0987 16.544 23.6307 12.3515 29.9291 14.233ZM110.313 14.233C116.653 16.1266 119.993 23.3143 117.283 29.2323C115.193 33.7985 110.408 36.4385 105.619 35.6672C100.789 34.8895 97.1958 31.2825 96.3867 26.4006C95.6934 22.2164 97.6927 17.8681 101.405 15.4859C103.958 13.8476 107.401 13.3632 110.313 14.233ZM72.4264 39.1771C75.3168 39.7301 78.0815 40.7088 80.9758 42.2039C88.5154 46.0979 94.0797 53.0423 96.2958 61.3232C97.0036 63.9677 97.6053 69.6668 97.3565 71.37C96.7417 75.5788 94.878 78.2705 91.4726 79.8677L90.0204 80.5487H66.9789H43.9373L42.2925 79.7891C40.1952 78.8206 38.0699 76.59 37.2249 74.4702C36.6855 73.1173 36.624 72.5496 36.6486 69.1588C36.6667 66.6947 36.8319 64.627 37.1191 63.2675C39.7545 50.8002 48.9861 41.6656 61.4803 39.1629C63.7829 38.7019 69.9842 38.7097 72.4264 39.1771ZM32.6724 40.8835C35.058 41.5221 37.7151 42.7878 39.9265 44.3389C40.7644 44.9267 41.4499 45.4433 41.4499 45.4871C41.4499 45.5308 40.8825 46.2501 40.1892 47.0856C37.4991 50.3271 35.561 53.8187 34.1135 58.0308L33.394 60.1255L18.9257 60.1933L4.45749 60.2609L4.61328 58.9473C4.69864 58.2248 5.11653 56.625 5.54149 55.392C8.12267 47.9035 14.4484 42.327 22.3359 40.5868C25.2279 39.9487 29.6558 40.0757 32.6724 40.8835ZM113.288 41.001C119.634 42.8603 124.601 46.9738 127.529 52.7941C128.432 54.5887 129.275 57.1956 129.539 59.0127L129.721 60.2564H115.091H100.462L100.137 58.9889C99.3276 55.8309 96.5873 50.7133 93.9273 47.393L92.5369 45.6575L93.1116 45.1297C95.2173 43.1947 99.6188 41.166 103.173 40.4918C106.148 39.9275 110.345 40.1388 113.288 41.001Z" fill="url(#paint0_linear_5_158)"/>
<defs>
<linearGradient id="paint0_linear_5_158" x1="18.8889" y1="9.48821e-07" x2="134.111" y2="85" gradientUnits="userSpaceOnUse">
<stop stop-color="#0BE3F7"/>
<stop offset="1" stop-color="#0874FC"/>
</linearGradient>
</defs>
</svg>
