<svg width="103" height="99" viewBox="0 0 103 99" fill="none" xmlns="http://www.w3.org/2000/svg">
<path d="M63.3989 49.709C63.3989 66.1385 60.096 77.1997 54.9408 84.097C49.8682 90.8838 42.7952 93.9179 34.4495 93.9179V98.9179C44.1546 98.9179 52.8063 95.3046 58.9458 87.0904C65.0026 78.9867 68.3989 66.6934 68.3989 49.709H63.3989ZM34.4495 93.9179C26.1151 93.9179 19.0387 90.843 13.9605 84.0264C8.80157 77.1015 5.5 66.0366 5.5 49.709H0.5C0.5 66.5986 3.89773 78.8883 9.95083 87.0135C16.0846 95.2471 24.733 98.9179 34.4495 98.9179V93.9179ZM5.5 49.709C5.5 37.2299 7.65898 26.0612 12.3633 18.1008C16.9767 10.2944 24.0555 5.5 34.4495 5.5V0.5C22.1402 0.5 13.4943 6.35934 8.05879 15.557C2.71417 24.6008 0.5 36.7866 0.5 49.709H5.5ZM34.4495 5.5C42.5206 5.5 49.586 8.21278 54.7144 14.805C59.925 21.503 63.3989 32.5392 63.3989 49.709H68.3989C68.3989 31.9866 64.8326 19.6683 58.6608 11.7349C52.4067 3.69562 43.7474 0.5 34.4495 0.5V5.5ZM46.4646 49.6159C46.4646 59.8562 44.943 66.6455 42.6669 70.7859C40.4766 74.7704 37.6536 76.2392 34.5425 76.2392V81.2392C39.7092 81.2392 44.0972 78.5633 47.0485 73.1946C49.9141 67.9818 51.4646 60.2094 51.4646 49.6159H46.4646ZM34.5425 76.2392C31.4446 76.2392 28.6168 74.7528 26.4198 70.743C24.1411 66.5843 22.6204 59.7919 22.6204 49.6159H17.6204C17.6204 60.1511 19.1719 67.9204 22.0348 73.1456C24.9794 78.5197 29.3627 81.2392 34.5425 81.2392V76.2392ZM22.6204 49.6159C22.6204 41.8445 23.6134 34.9583 25.72 30.1116C27.8004 25.3254 30.704 22.9926 34.5425 22.9926V17.9926C27.9698 17.9926 23.6624 22.3025 21.1345 28.1185C18.6329 33.8739 17.6204 41.5494 17.6204 49.6159H22.6204ZM34.5425 22.9926C37.5792 22.9926 40.381 24.3107 42.5706 28.1375C44.8631 32.1443 46.4646 38.9109 46.4646 49.6159H51.4646C51.4646 38.5655 49.8376 30.7704 46.9104 25.6544C43.8802 20.3584 39.4709 17.9926 34.5425 17.9926V22.9926ZM71.1095 22.4343H103V17.4343H71.1095V22.4343ZM71.1095 37.5077H86.462V32.5077H71.1095V37.5077ZM71.1095 52.4881H94.7431V47.4881H71.1095V52.4881ZM71.1095 67.1893H86.462V62.1893H71.1095V67.1893ZM71.1095 82.5419H81.4376V77.5419H71.1095V82.5419Z" fill="url(#paint0_linear_5_211)"/>
<defs>
<linearGradient id="paint0_linear_5_211" x1="3" y1="3" x2="88" y2="96" gradientUnits="userSpaceOnUse">
<stop stop-color="#0BE3F7"/>
<stop offset="1" stop-color="#0874FC"/>
</linearGradient>
</defs>
</svg>
