<svg width="105" height="105" viewBox="0 0 105 105" fill="none" xmlns="http://www.w3.org/2000/svg">
<path d="M96.2862 65.4968V19.666C96.2862 10.298 86.7969 2 78.6201 2H18.7575C10.5806 2 2 11.1863 2 18.7575V78.822C2 87.6046 12.1958 96.2862 19.4641 96.2862H65.4968M96.2862 65.4968C75.3696 44.5802 43.4899 74.2793 65.4968 96.2862M96.2862 65.4968C113.851 85.0808 87.3017 115.063 65.4968 96.2862M15.729 23.5021L23.9059 29.7609L36.6254 14.9214M36.6254 40.5624L23.9059 55.2L15.729 48.7393M15.729 75.8945L23.9059 82.4562L36.6254 67.2129M82.0524 24.4106H49.244M49.244 49.5469H82.0524M49.244 77.1059H58.2284M78.3172 77.5097L76.6011 79.2258C73.6736 82.1533 69.5145 77.6308 72.2603 74.885L79.7305 67.4148C81.0765 66.0688 84.677 66.0419 84.677 69.8376V91.4406C84.677 95.5795 78.3172 95.0748 78.3172 91.4406V77.5097Z" stroke="url(#paint0_linear_5_216)" stroke-width="4"/>
<defs>
<linearGradient id="paint0_linear_5_216" x1="2" y1="2" x2="96.5" y2="102" gradientUnits="userSpaceOnUse">
<stop stop-color="#0BE3F7"/>
<stop offset="1" stop-color="#0878FC"/>
</linearGradient>
</defs>
</svg>
