<svg width="100" height="100" viewBox="0 0 100 100" fill="none" xmlns="http://www.w3.org/2000/svg">
<path fill-rule="evenodd" clip-rule="evenodd" d="M16.7218 0.184871C14.0743 0.808659 11.9295 3.35013 11.7268 6.10402C11.6129 7.65078 11.9828 9.06036 12.8388 10.3412C13.547 11.4011 15.306 12.7902 16.0898 12.9088C16.4674 12.9659 16.4807 13.1177 16.4807 17.3517V21.7356L15.1127 21.9702C11.3137 22.6213 7.9247 24.4567 5.11316 27.3851C2.60081 30.0022 1.10056 32.8698 0.37163 36.4492C-0.839792 42.3978 0.943045 48.3586 5.2439 52.7406C8.95595 56.5226 13.0756 58.2618 18.3372 58.2685C21.3277 58.2722 23.4596 57.8036 26.0446 56.574C31.1246 54.1578 34.6114 49.9366 36.0933 44.4081L36.4138 43.2127L40.0291 46.037C43.217 48.5273 43.6397 48.9226 43.6041 49.3818C43.5818 49.6683 43.5052 50.4547 43.4337 51.1295C42.8097 57.0105 49.9123 60.5522 54.4104 56.6029C58.9446 52.6217 56.0555 45.082 49.9956 45.082C48.7601 45.082 46.6336 45.6821 46.3725 46.1046C46.3103 46.2051 46.1473 46.2873 46.0102 46.2873C45.8732 46.2873 43.7018 44.6772 41.185 42.7093L36.6092 39.1315L36.4812 37.848C36.2097 35.1291 35.1275 32.1995 33.5039 29.7896C33.0029 29.0456 32.6171 28.3738 32.6468 28.2966C32.7291 28.0826 40.0584 21.8595 40.228 21.8595C40.3097 21.8595 40.4379 22.1892 40.5131 22.5924C40.9747 25.0668 42.9407 28.6556 45.0356 30.8484C48.1985 34.159 51.9309 36.0245 56.4518 36.5551C59.7171 36.9381 62.9763 36.3681 66.1691 34.8557L67.9836 33.9962L71.5253 38.7249C73.4732 41.3258 75.1459 43.5553 75.2422 43.6794C75.3651 43.8375 75.1076 44.0058 74.3831 44.2405C69.1321 45.943 64.5778 50.3335 62.8079 55.3999C61.9334 57.9032 61.6572 59.8086 61.779 62.5011C61.8482 64.035 62.0322 65.4483 62.2714 66.2833L62.6533 67.6163L59.3174 70.1222L55.9816 72.6281L55.0068 71.2318C52.2645 67.3048 48.0336 64.5591 43.3512 63.6684C41.3208 63.282 37.8698 63.3645 35.8717 63.847C28.8046 65.5536 23.444 71.0616 22.0547 78.0434C21.9263 78.6883 21.7833 79.4137 21.7366 79.6557L21.6519 80.0954H17.3923H13.1327L12.6967 79.0434C11.8365 76.9682 9.67295 75.3664 7.36364 75.0949C3.23105 74.6091 -0.437809 78.278 0.0480109 82.4105C0.627438 87.3401 6.20909 89.9154 10.3364 87.1572C11.3964 86.449 12.7854 84.69 12.9041 83.9061C12.9611 83.5286 13.113 83.5153 17.347 83.5153H21.7309L21.9654 84.8832C22.5743 88.435 24.2235 91.6476 26.8173 94.3337C30.2894 97.9294 34.3575 99.7594 39.3451 99.9687C41.2084 100.047 42.0718 99.988 43.5486 99.6822C50.0671 98.3318 55.2769 93.6845 57.4146 87.3131L57.9165 85.8173L63.2874 88.404C67.7702 90.5628 68.6463 91.0511 68.5855 91.3568C68.5455 91.5583 68.5015 92.4705 68.4878 93.3841C68.4667 94.8011 68.5379 95.2031 68.9729 96.12C69.9083 98.0916 71.6124 99.4142 73.7883 99.8577C76.7137 100.454 79.7262 98.9026 81.0464 96.12C81.4717 95.2234 81.5563 94.7696 81.5563 93.3841C81.5563 91.9956 81.4713 91.5418 81.0388 90.6193C79.3246 86.9627 74.6651 85.6075 71.408 87.8179L70.7215 88.2838L64.5727 85.3188L58.424 82.3541L58.3038 80.8827C58.2377 80.0735 58.0464 78.7519 57.8787 77.9457C57.7111 77.1396 57.5616 76.2897 57.5467 76.0572C57.5252 75.7263 58.2285 75.101 60.7845 73.1782L64.0496 70.7218L64.7906 71.8419C66.3986 74.272 69.325 76.8561 71.9806 78.1908C74.8009 79.6082 78.7432 80.2824 81.9641 79.898C84.0628 79.6477 86.4551 78.9709 88.0052 78.189C91.8371 76.2563 95.3375 72.5425 96.901 68.7509C98.0138 66.0527 98.1562 65.2402 98.1512 61.628C98.1469 58.562 98.1049 58.1702 97.6065 56.547C95.2875 48.9939 88.8708 43.9145 80.9753 43.3822L79.1372 43.2583L74.9237 37.642C72.6063 34.5532 70.7104 31.9959 70.7104 31.9592C70.7104 31.9224 71.1538 31.4157 71.6959 30.8333C74.3304 28.0017 76.1326 24.1444 76.5009 20.5492C76.5703 19.8727 76.6528 19.3191 76.6842 19.3191C76.7157 19.3191 79.078 20.4562 81.9341 21.8459L87.1266 24.3727L86.9308 24.8876C86.8231 25.1708 86.735 25.9652 86.735 26.6529C86.735 30.2824 89.6675 33.2421 93.2568 33.2345C95.9873 33.2288 98.1006 31.9275 99.2836 29.523C99.85 28.3722 99.9256 28.0314 99.9235 26.6417C99.9213 25.2583 99.8425 24.9062 99.2801 23.7637C97.5721 20.2942 93.5292 19.0476 90.0318 20.9117L88.9091 21.5101L82.7193 18.5172C79.3148 16.8712 76.5062 15.4329 76.4779 15.3209C75.285 10.6177 73.9116 8.01388 71.2151 5.34363C68.8339 2.98547 66.1181 1.44085 62.7266 0.515135C60.4827 -0.097123 56.1852 -0.0916513 53.904 0.526665C48.5987 1.96458 44.3815 5.37275 41.9628 10.1768C41.0632 11.9638 40.3202 14.4128 40.1254 16.2337L39.9851 17.5452L35.4738 21.4124C32.9927 23.5392 30.7762 25.427 30.5485 25.6074C30.1511 25.9222 30.0846 25.9001 28.8771 25.0535C28.1855 24.5687 27.1361 23.9277 26.5449 23.6293C24.8064 22.7516 23.4659 22.3436 20.3403 21.7413L19.9006 21.6567V17.3971V13.1375L20.9525 12.7015C22.2597 12.1596 23.7287 10.7416 24.3224 9.44847C26.6295 4.42241 22.111 -1.08479 16.7218 0.184871ZM19.6913 3.63681C20.0598 3.82461 20.6314 4.31629 20.9615 4.72942C21.4743 5.37099 21.5617 5.64341 21.5617 6.60019C21.5617 7.98163 20.9635 8.9779 19.79 9.55087C17.0292 10.8989 14.1088 8.18644 15.2866 5.36786C16.0126 3.62997 18.0826 2.81643 19.6913 3.63681ZM62.241 3.86389C67.5816 5.38819 71.5593 9.48033 72.888 14.8171C73.2346 16.2097 73.2843 16.8581 73.2014 18.921C73.0539 22.6016 72.0271 25.3343 69.8214 27.9176C68.4997 29.4654 68.4405 29.4728 68.2977 28.105C68.0299 25.5452 66.4265 23.854 63.8553 23.4204C62.9535 23.2682 60.7682 23.215 57.4617 23.2644C52.7438 23.335 52.3776 23.3666 51.4382 23.785C49.6591 24.5775 48.5766 26.1121 48.3363 28.1826L48.2036 29.3268L47.614 28.7689C46.1399 27.3734 44.6649 24.8507 43.917 22.4458C43.5295 21.1998 43.4619 20.57 43.4662 18.2442C43.4705 15.7995 43.5269 15.3418 43.9969 13.9449C45.8732 8.36622 50.2803 4.51426 55.9583 3.49044C57.4566 3.22017 60.6512 3.41012 62.241 3.86389ZM56.7377 6.88141C55.3853 7.22926 54.6732 7.63671 53.6813 8.63044C52.4073 9.90654 51.8902 11.0957 51.7956 12.9667C51.6866 15.1245 52.1976 16.4714 53.693 17.9667C56.586 20.8598 61.2746 20.4953 63.7066 17.1882C64.5413 16.0532 64.8923 14.9041 64.9067 13.2594C64.922 11.5319 64.3728 10.1051 63.188 8.79361C61.7076 7.155 58.9043 6.32387 56.7377 6.88141ZM59.6844 10.3093C62.1812 11.4433 62.3049 14.8521 59.8984 16.2046C59.3016 16.5402 58.9221 16.6101 58.0794 16.5402C56.3267 16.395 55.2648 15.333 55.1196 13.5803C54.9044 10.9864 57.337 9.24328 59.6844 10.3093ZM95.1581 23.8642C95.9249 24.3738 96.7015 25.774 96.7015 26.6474C96.7015 27.4277 95.9599 28.8693 95.3185 29.336C94.2386 30.1216 92.505 30.1212 91.4523 29.3354C90.4601 28.5946 90.1549 27.9702 90.1549 26.682C90.1549 25.3183 90.6167 24.4536 91.6966 23.7952C92.5824 23.2551 94.2927 23.2891 95.1581 23.8642ZM20.6823 25.1944C26.5226 26.1377 31.3132 30.5168 32.8256 36.2942C33.3274 38.2115 33.3663 41.5163 32.9098 43.4537C32.4578 45.3716 31.2474 47.7647 29.8513 49.5001C29.1976 50.3126 28.582 50.9775 28.4833 50.9775C28.3844 50.9775 28.3037 50.5929 28.3037 50.1227C28.3037 48.1902 27.1931 46.439 25.413 45.5649L24.2976 45.0171H18.3372C12.5281 45.0171 12.352 45.0284 11.3997 45.4673C10.8623 45.7149 10.1697 46.1546 9.86055 46.4445C9.01535 47.2365 8.37476 48.7465 8.37261 49.9515C8.37144 50.5157 8.29014 50.9775 8.19184 50.9775C8.09355 50.9775 7.65521 50.571 7.21766 50.074C3.84018 46.2367 2.56212 41.1045 3.78175 36.2762C3.95216 35.602 4.50071 34.2151 5.00099 33.194C5.76411 31.6367 6.19561 31.0508 7.67808 29.5586C11.2889 25.9241 15.8088 24.4073 20.6823 25.1944ZM64.4717 27.2489C64.8946 27.6988 64.9526 27.9591 65.012 29.6774L65.0789 31.6021L64.4258 31.9412C63.007 32.6777 61.4292 33.0289 59.0827 33.1301C56.553 33.2396 54.9646 33.0068 52.8781 32.221L51.7544 31.7979V29.7513C51.7544 27.8387 51.7859 27.673 52.2342 27.2249L52.7137 26.7451H58.3558H63.9978L64.4717 27.2489ZM16.6116 28.5938C14.6244 29.0747 12.8515 30.7063 12.0721 32.7717C11.5127 34.2544 11.6065 36.3888 12.2932 37.7931C12.9045 39.0434 14.265 40.4106 15.5036 41.0193C16.3216 41.4213 16.767 41.4995 18.2395 41.4995C19.7341 41.4995 20.1642 41.4217 21.1034 40.9814C25.3556 38.9879 26.2489 33.2994 22.8043 30.1513C21.8366 29.2668 21.2117 28.9258 19.9623 28.6004C18.6385 28.2557 18.014 28.2544 16.6116 28.5938ZM20.2582 32.3635C21.6445 33.4856 21.9926 34.9227 21.2498 36.4572C20.094 38.8449 16.6091 38.8748 15.4014 36.5076C14.5311 34.8016 15.2796 32.7289 17.0669 31.8962C17.9579 31.4812 19.4353 31.6975 20.2582 32.3635ZM83.7059 47.1304C86.5595 47.9226 88.6818 49.1743 90.7411 51.2796C92.8171 53.4021 94.0569 55.7245 94.6818 58.6619C95.1024 60.6382 94.9404 64.2988 94.3559 66.025C93.5146 68.5104 92.2598 70.626 90.7853 72.045L90.114 72.6908L90.0036 71.6199C89.7889 69.5393 88.6925 67.9317 86.9326 67.117C86.0995 66.7314 85.7231 66.709 80.0906 66.709C73.3789 66.709 73.1483 66.7461 71.7225 68.0538C70.6918 68.9993 70.2099 69.9911 70.0188 71.5591L69.8802 72.6961L69.2959 72.1454C68.9744 71.8423 68.2877 70.9957 67.77 70.2639C63.5872 64.351 64.2933 56.2306 69.4374 51.0865C71.5565 48.9672 74.5338 47.4098 77.5038 46.8666C78.7582 46.6371 82.5031 46.7964 83.7059 47.1304ZM24.1371 48.6218C24.8064 49.066 24.9815 49.689 24.9815 51.6251V53.4271L23.8579 53.8633C22.0813 54.5531 20.3366 54.8798 18.4126 54.883C16.2819 54.8865 15.0054 54.6711 13.1096 53.9885L11.6928 53.4783V51.4897C11.6928 49.2456 11.8892 48.7608 12.923 48.452C13.2675 48.349 15.8358 48.2816 18.6303 48.3021C22.6891 48.3318 23.7969 48.3961 24.1371 48.6218ZM51.7714 48.8825C53.3594 49.9527 53.7708 52.1426 52.6576 53.6018C51.9647 54.5103 51.1222 54.931 49.9956 54.931C48.869 54.931 48.0265 54.5103 47.3336 53.6018C46.2204 52.1426 46.6318 49.9527 48.2198 48.8825C49.1439 48.2597 50.8473 48.2597 51.7714 48.8825ZM78.4753 50.2014C76.6174 50.6683 74.8725 52.0855 74.0243 53.8162C73.3415 55.2093 73.2565 57.4993 73.8307 59.0293C75.0866 62.3749 78.99 64.1479 82.328 62.8886C86.0614 61.4804 87.715 56.9912 85.8018 53.4585C84.4613 50.9831 81.1764 49.5227 78.4753 50.2014ZM81.4547 53.7622C83.4779 54.796 83.9238 57.1673 82.4177 58.8827C81.7044 59.6951 80.7308 60.0458 79.5565 59.9135C78.5544 59.8006 77.8489 59.3449 77.191 58.3855C76.8077 57.8268 76.746 57.5292 76.8069 56.5386C76.8955 55.0976 77.4513 54.2191 78.6056 53.6948C79.6673 53.2127 80.4137 53.2303 81.4547 53.7622ZM43.5467 67.1264C47.5092 68.0064 51.5328 71.2455 53.4047 75.0627C54.8534 78.0171 55.3269 81.9523 54.6054 85.0433C54.036 87.4821 52.2406 90.7457 50.6294 92.2706L50.0507 92.8182L49.9514 91.5809C49.7871 89.5341 48.7039 87.9756 46.8688 87.146C46.0477 86.7747 45.5992 86.7479 40.1025 86.744C35.3827 86.7405 34.0523 86.7974 33.3915 87.0305C31.3793 87.7405 30.0694 89.5781 30.0541 91.7125L30.0457 92.8955L28.8327 91.6038C24.5108 87.001 23.786 79.6453 27.104 74.0602C30.4731 68.3892 36.9445 65.6601 43.5467 67.1264ZM38.9007 70.1611C37.4421 70.3894 36.1247 71.1196 35.0841 72.2771C32.7639 74.8579 32.8047 78.679 35.1795 81.1899C38.4209 84.6173 44.037 83.696 46.0215 79.4114C46.7397 77.8611 46.787 75.6149 46.1319 74.1682C44.8013 71.2297 41.9983 69.6764 38.9007 70.1611ZM86.0958 70.5725C86.617 71.0935 86.6373 71.1892 86.6373 73.1108V75.1078L85.4847 75.5661C82.484 76.7597 78.4852 76.8967 75.5236 75.9075C73.039 75.0777 73.195 75.2755 73.2837 73.0643C73.4101 69.9162 73.3992 69.9209 80.3308 69.9838L85.5542 70.0311L86.0958 70.5725ZM41.9655 74.0246C42.6942 74.5436 43.3405 75.7869 43.3469 76.6829C43.3526 77.4533 42.61 78.8972 41.9682 79.3641C40.8883 80.1497 39.1547 80.1493 38.102 79.3635C37.1016 78.6166 36.8046 78.0012 36.8046 76.6755C36.8046 75.2823 37.1298 74.6681 38.2882 73.8735C39.1848 73.2585 40.9941 73.3328 41.9655 74.0246ZM8.18305 78.7866C10.4324 79.976 10.4818 83.2808 8.26904 84.534C5.0985 86.3296 1.73294 82.3001 4.12628 79.5742C5.26012 78.2826 6.70116 78.003 8.18305 78.7866ZM46.0274 90.5333C46.5532 90.9851 46.5784 91.0883 46.6416 93.0441L46.7072 95.0837L45.6645 95.5011C42.0935 96.9302 37.6588 96.9334 34.3485 95.5095L33.3847 95.0948V93.0935C33.3847 91.1918 33.4103 91.0668 33.8998 90.577L34.4152 90.0619H39.9472H45.479L46.0274 90.5333ZM76.6836 90.5477C78.6633 91.708 78.8647 94.3151 77.0948 95.8691C75.4419 97.3205 72.8143 96.6795 71.9515 94.6149C71.0735 92.5135 72.7072 90.0688 74.9925 90.0637C75.5609 90.0625 76.1372 90.2274 76.6836 90.5477Z" fill="url(#paint0_linear_5_75)"/>
<defs>
<linearGradient id="paint0_linear_5_75" x1="0" y1="0" x2="100" y2="100" gradientUnits="userSpaceOnUse">
<stop stop-color="#0BE3F7"/>
<stop offset="1" stop-color="#0874FC"/>
</linearGradient>
</defs>
</svg>
