<svg width="98" height="98" viewBox="0 0 98 98" fill="none" xmlns="http://www.w3.org/2000/svg">
<path fill-rule="evenodd" clip-rule="evenodd" d="M25.3279 0.583911L24.69 1.15364V9.8468C24.69 18.3755 24.6978 18.5503 25.1005 19.0898C25.6357 19.8066 26.5345 20.0687 27.3294 19.7394C28.4972 19.2558 28.4986 19.2443 28.4986 9.77434V1.15579L27.9277 0.584888C27.1482 -0.194604 26.1995 -0.194995 25.3279 0.583911ZM53.1079 2.65598C43.3408 4.18762 35.5603 11.7825 33.6472 21.6527C33.2458 23.7236 33.2027 27.6599 33.5589 29.7015C34.6036 35.6884 37.939 41.1236 42.854 44.8486C44.4206 46.0359 48.3122 47.9333 50.4105 48.5329C52.4939 49.1283 55.731 49.6238 57.5275 49.6222C60.7925 49.6195 64.5076 48.7284 67.6689 47.1904C74.4515 43.8902 79.2788 37.5417 80.5827 30.2081C81.2404 26.5085 80.9085 22.13 79.6995 18.5603C78.4935 14.9986 75.8745 10.8241 74.1283 9.67981C73.0115 8.94797 71.3767 9.91458 71.3806 11.3042C71.3822 11.9005 71.6124 12.3136 72.7083 13.6859C74.3486 15.7402 75.9867 19.0019 76.5827 21.4007C76.9372 22.8279 77.0195 23.7097 77.0195 26.0882C77.0195 29.5935 76.6161 31.5144 75.2949 34.3036C72.6607 39.8644 68.2886 43.5294 62.3218 45.1782C61.0788 45.5218 60.2558 45.5948 57.5025 45.606C54.6099 45.6177 53.9683 45.5611 52.522 45.1663C49.2675 44.2779 46.3992 42.6667 43.9701 40.363C42.1509 38.6378 40.9771 37.0704 39.9027 34.9314C34.3292 23.8364 40.171 10.6618 52.229 7.13215C54.5818 6.44348 58.4695 6.2634 60.9357 6.72903C63.1234 7.14192 63.6923 7.12805 64.3048 6.64622C65.2839 5.8761 65.1173 4.12629 64.0132 3.58508C61.846 2.52258 56.7353 2.08704 53.1079 2.65598ZM56.8038 11.3271C56.3392 11.7917 56.2329 12.0644 56.2329 12.7919V13.6859H55.0816C52.8988 13.6859 50.3796 14.7884 49.0173 16.34C47.9943 17.5052 47.5826 18.5308 47.4855 20.156C47.3669 22.14 47.7646 23.3251 49.0036 24.681C50.1736 25.9609 51.2419 26.4661 53.9868 27.037L56.1353 27.4841L56.1888 30.839L56.2421 34.1937H55.1273C53.0478 34.1937 51.5226 33.0318 51.1775 31.1847C50.9398 29.9118 50.3349 29.3109 49.2919 29.3109C48.0708 29.3109 47.4439 30.0072 47.4439 31.3638C47.4439 33.3745 48.3941 35.1073 50.2456 36.4726C51.599 37.4704 53.4695 38.0999 55.0816 38.0999H56.2329V39.0915C56.2329 39.9271 56.3228 40.173 56.8038 40.654C57.465 41.3152 58.4849 41.422 59.2636 40.9118C59.7527 40.5913 60.1361 39.5939 60.138 38.637C60.139 38.162 60.2124 38.0997 60.774 38.0976C61.1232 38.0964 61.8482 37.9779 62.3853 37.8345C67.9902 36.3372 70.0003 30.1786 66.0597 26.5771C64.9581 25.5702 63.8968 25.1261 61.3238 24.5947L60.1392 24.3499V20.8697V17.3894L60.6763 17.5042C62.6843 17.9339 64.2408 19.172 64.2408 20.34C64.2408 21.5298 65.0808 22.4634 66.1579 22.4706C67.5511 22.48 68.2706 21.4923 68.0626 19.856C67.6786 16.8343 64.5995 14.0361 61.3325 13.7398L60.1829 13.6355L60.0597 12.7072C59.8943 11.4601 59.2031 10.7562 58.1445 10.7562C57.5542 10.7562 57.2417 10.8892 56.8038 11.3271ZM87.4679 13.4755L86.897 14.0464V22.4314V30.8163L87.3687 31.3253C87.9693 31.9734 88.6982 32.1556 89.4476 31.845C90.6363 31.3529 90.6079 31.5849 90.6079 22.3511V13.9159L90.007 13.4103C89.1663 12.7029 88.2161 12.7273 87.4679 13.4755ZM56.1892 20.473C56.2507 23.8661 56.4314 23.6111 54.2849 23.1597C52.4585 22.7753 51.8634 22.4443 51.456 21.5857C50.5085 19.589 52.7781 17.3019 55.5493 17.4609L56.1353 17.4945L56.1892 20.473ZM16.1939 19.2091C15.9253 19.3433 15.5499 19.7595 15.3599 20.1339C15.0425 20.7587 15.0183 21.497 15.0669 29.1156C15.1236 38.0382 15.1204 38.0105 16.1437 38.4767C16.9704 38.8532 17.7456 38.7267 18.3574 38.115L18.9283 37.5441L18.924 28.8864C18.9199 20.9784 18.8904 20.1927 18.5822 19.8122C17.9115 18.9843 17.0693 18.7716 16.1939 19.2091ZM25.3279 25.3886L24.69 25.9585V32.015C24.69 37.8644 24.704 38.0902 25.1005 38.6228C25.8628 39.6464 27.097 39.7146 28.0271 38.7845L28.4986 38.313V32.1368V25.9605L27.9277 25.3896C27.1482 24.6101 26.1995 24.6097 25.3279 25.3886ZM61.7993 28.64C63.4726 28.9337 64.2408 29.7419 64.2408 31.2089C64.2408 32.6652 62.841 33.9413 60.8716 34.2806L60.1392 34.4068V31.3493V28.2919L60.5786 28.3974C60.8204 28.4554 61.3697 28.5646 61.7993 28.64ZM87.4679 38.4755C86.9913 38.9521 86.897 39.2054 86.897 40.0095C86.897 41.5839 88.1304 42.547 89.4476 42.0013C90.2927 41.6513 90.6079 41.0909 90.6079 39.9386C90.6079 39.114 90.5158 38.8423 90.0931 38.4195C89.3531 37.6796 88.2402 37.7032 87.4679 38.4755ZM15.754 42.3038C14.789 43.2691 14.9911 44.9064 16.1597 45.5872C18.0722 46.7013 19.9451 43.9695 18.3574 42.3818C17.5954 41.6199 16.4716 41.5863 15.754 42.3038ZM75.6896 52.3671C74.1292 52.7591 72.4056 53.7624 71.0019 55.0958C69.8404 56.1991 68.9013 57.5036 65.5327 62.6935C61.495 68.914 61.4609 68.9593 60.7943 68.9593H60.1228L60.6183 68.1136C61.7826 66.1269 62.3687 63.0718 61.9097 61.382C61.7464 60.781 61.5046 60.4349 61.057 60.162C60.4531 59.7939 59.9722 59.781 46.7242 59.7804C38.999 59.78 32.8189 59.8568 32.564 59.9566C32.3154 60.0538 29.8706 62.1159 27.1314 64.5392L22.1509 68.945L20.7349 68.9521L19.3189 68.9593V66.303V63.6468L18.6548 62.9827L17.9908 62.3187H9.77728C0.95169 62.3187 0.771026 62.3378 0.261261 63.3236C-0.161981 64.1421 -0.0752626 64.7865 0.552667 65.4894L1.12239 66.1273L8.26751 66.1831L15.4126 66.2388V80.1864V94.1341L10.9033 94.1933L6.39368 94.2523L5.92278 94.8003C5.28372 95.5437 5.28392 96.6722 5.92298 97.4152L6.39446 97.9632H12.2663H18.1382L18.6796 97.4218C19.1714 96.9302 19.2275 96.7279 19.2902 95.2245L19.3589 93.5687L26.8097 93.5697L34.2603 93.5706L53.3033 86.5093L72.3462 79.4478L80.8423 73.5874C85.5152 70.3642 91.0734 66.5322 93.1941 65.0718C97.447 62.1427 97.8533 61.7036 97.4474 60.4739C97.1464 59.5618 94.1874 56.7568 92.8937 56.157C90.6763 55.1292 87.8005 55.0339 85.2202 55.9029L83.8363 56.3689L84.0285 55.7431C84.2831 54.9128 83.9036 53.9984 83.1406 53.6036C81.0831 52.5398 77.4216 51.9322 75.6896 52.3671ZM79.2038 56.2413C79.3439 56.3189 79.0617 57.0197 78.4081 58.2171L77.3954 60.0726L73.0154 62.6316C70.6064 64.0388 68.6083 65.1691 68.5753 65.1431C68.5423 65.1171 69.2015 64.0501 70.0402 62.772C70.8788 61.4937 71.8548 59.9933 72.2089 59.4376C73.265 57.7806 75.0074 56.4781 76.6888 56.089C77.4113 55.9216 78.7767 56.0044 79.2038 56.2413ZM91.0962 59.5611C92.0066 59.979 92.714 60.6917 92.449 60.9238C92.0958 61.2331 70.972 75.7405 70.5566 75.9591C70.3242 76.0816 61.8243 79.2587 51.6685 83.0197L33.2029 89.8577H26.2609H19.3189V81.264V72.6702H21.4634H23.6079L28.7388 68.1812L33.8697 63.6921L46.0316 63.689L58.1935 63.6859L58.0738 64.223C57.687 65.9558 56.2962 67.839 54.8626 68.5702C54.1368 68.9406 53.7031 68.9593 45.8697 68.9593H37.6392L36.9503 69.6482C36.3411 70.2573 36.2751 70.4197 36.3779 71.0536C36.4419 71.4478 36.7187 71.9949 36.9929 72.2691L37.4917 72.7679L50.1843 72.8208C61.7033 72.8689 62.9349 72.8439 63.5052 72.549C63.8507 72.3702 68.6179 69.6296 74.0992 66.4585C79.5804 63.2874 84.4452 60.4763 84.9099 60.2113C86.1804 59.487 87.2294 59.2208 88.8501 59.2111C89.8732 59.2048 90.5505 59.3105 91.0962 59.5611ZM6.52591 71.871C5.79661 72.1833 5.36282 72.8587 5.36282 73.6824C5.36282 74.3218 5.48079 74.5734 5.99642 75.0339C6.34466 75.3452 6.84388 75.5999 7.10579 75.5999C8.24329 75.5999 9.16263 74.689 9.16263 73.5618C9.16263 72.4792 7.53821 71.4374 6.52591 71.871Z" fill="url(#paint0_linear_5_67)"/>
<defs>
<linearGradient id="paint0_linear_5_67" x1="5" y1="-6.98677e-07" x2="98" y2="104" gradientUnits="userSpaceOnUse">
<stop stop-color="#0BE3F7"/>
<stop offset="1" stop-color="#0874FC"/>
</linearGradient>
</defs>
</svg>
