<svg width="100" height="101" viewBox="0 0 100 101" fill="none" xmlns="http://www.w3.org/2000/svg">
<path fill-rule="evenodd" clip-rule="evenodd" d="M48.9067 3.23344C46.5424 5.11814 44.5284 6.7756 44.4316 6.91638C44.3094 7.09383 44.5475 7.53775 45.2075 8.36226L46.1596 9.55226L47.2465 8.68991L48.3333 7.82775L48.3843 16.9415L48.4353 26.0554H50.002H51.5686V15.6358C51.5686 4.13913 51.448 5.2805 52.7663 4.29403L53.2778 3.91148L54.0898 4.60658L54.902 5.30167V15.6785V26.0554H56.4686H58.0353L58.0863 16.9397L58.1373 7.82422L59.2076 8.67834L60.2778 9.53246L61.2175 8.35716C61.7341 7.71069 62.1569 7.12109 62.1569 7.04677C62.1569 6.93677 54.6708 0.855399 53.53 0.0387328C53.2543 -0.158522 52.5573 0.323047 48.9067 3.23344ZM81.159 6.45579C78.85 8.29991 76.8374 9.92913 76.6867 10.0762C76.4188 10.337 76.6298 10.6756 78.2592 12.6017C78.3402 12.6972 78.8751 12.4021 79.4482 11.9458L80.4902 11.116L80.5416 18.5858L80.5929 26.0554H82.2573H83.9216L83.9324 17.1829L83.9433 8.3103L84.501 7.8705C85.3667 7.18795 85.539 7.18422 86.3247 7.83167L87.0588 8.43697V17.254V26.0713L88.6765 26.0142L90.2941 25.9574L90.3922 18.5607L90.4902 11.164L91.4706 11.9474L92.451 12.7305L93.1063 11.9911C93.4669 11.5842 93.9267 11.0219 94.1284 10.7415L94.4949 10.2315L90.1027 6.72599C87.6873 4.79795 85.6312 3.19383 85.5339 3.16148C85.4369 3.12912 83.468 4.61148 81.159 6.45579ZM65.0312 14.4764C62.7835 16.2889 60.8086 17.9078 60.6426 18.0738C60.3706 18.3458 60.4339 18.4946 61.2776 19.5685C61.7931 20.2246 62.2553 20.7613 62.3047 20.7613C62.3543 20.7613 62.8486 20.3999 63.4033 19.9581L64.4118 19.155L64.4641 24.1738L64.5165 29.1927H66.0818H67.6471V22.8691V16.5456L68.2843 16.0432C69.3402 15.2107 69.3731 15.2076 70.1996 15.8621L70.9804 16.4805V22.8366V29.1927H72.549H74.1176V24.1927C74.1176 21.4427 74.1712 19.1927 74.2367 19.1927C74.3022 19.1927 74.8094 19.5538 75.3639 19.9954L76.3722 20.7981L77.0276 20.0444C77.3882 19.6299 77.8441 19.0672 78.0406 18.7938L78.3979 18.297L73.9267 14.7252C71.4677 12.7607 69.3796 11.1597 69.2867 11.1672C69.1937 11.1748 67.2786 12.664 65.0312 14.4764ZM17.8431 15.4379C17.8431 18.7068 17.5359 19.3887 16.0639 19.3887C15.5337 19.3887 15.139 19.0978 13.5443 17.5311L11.6535 15.6732L7.1002 20.2297L2.54667 24.7864L4.41059 26.6425C6.02157 28.2468 6.27451 28.5874 6.27451 29.1527C6.27451 30.6421 5.56961 30.9546 2.20588 30.9562L0 30.9574V37.315V43.6729L2.76294 43.7366C5.39235 43.7974 5.54392 43.8228 5.9002 44.2634C6.11039 44.5234 6.27451 45.0295 6.27451 45.4183C6.27451 46.0285 6.0549 46.3338 4.41686 48.0013L2.55902 49.8921L7.11549 54.4454L11.6722 58.9989L13.5151 57.1481C14.5286 56.1303 15.5651 55.2456 15.818 55.1821C16.4863 55.0144 17.3733 55.5505 17.6259 56.2748C17.7453 56.6178 17.8431 57.9438 17.8431 59.2219V61.5456H24.2008H30.5586L30.6224 58.8054C30.6922 55.8101 30.8216 55.4695 31.9916 55.1978C32.4508 55.0911 32.5731 55.1797 33.0212 55.9442C33.3222 56.458 33.9294 57.0709 34.5098 57.447L35.4902 58.0823V65.9574V73.8325L34.4608 74.4989C33.8947 74.8654 32.7859 75.8001 31.9969 76.576C30.6702 77.8805 30.522 77.9727 30.0276 77.8003C29.7076 77.6889 25.2818 77.6356 19.0112 77.668L8.52941 77.7221L7.86922 78.1929C7.50627 78.4519 7.0449 79.0254 6.84412 79.4674C6.50608 80.2117 6.47882 80.9091 6.4749 88.906C6.47059 97.475 6.47392 97.5476 6.91176 98.4158C7.23412 99.055 7.58863 99.4095 8.22784 99.7319C9.10177 100.173 9.11275 100.173 19.3616 100.173C27.5826 100.173 29.7476 100.12 30.2606 99.9056C30.8541 99.6576 31.8298 98.7034 31.9941 98.2101C32.0386 98.077 32.5047 98.1925 33.2384 98.5185C33.8837 98.8052 35.25 99.2723 36.2745 99.5564L38.1373 100.073L65.3922 100.13C95.8143 100.193 93.5267 100.293 95.1588 98.8219C96.7684 97.3707 96.6575 98.9595 96.6624 77.2848L96.6667 58.0242L97.432 57.6336C97.8529 57.4189 98.4682 56.9148 98.799 56.5132C99.8459 55.2434 100 54.4421 100 50.2717C100 45.7532 99.8086 44.8732 98.5522 43.617C97.2849 42.3495 96.4184 42.1338 92.5959 42.1338C90.8267 42.1338 89.4131 42.0676 89.4547 41.9868C90.2816 40.3807 90.2871 40.3458 90.2906 36.6436C90.2939 33.247 90.2653 32.9578 89.8416 32.0974C88.8116 30.0062 86.8577 29.0421 84.1429 29.2848C78.9716 29.7476 74.6731 31.5662 70.9278 34.8764L69.9931 35.7027L66.0843 35.7111L62.1755 35.7197L61.0902 34.7278C57.8274 31.7458 53.5147 29.8627 48.8235 29.3715C46.2947 29.1066 45.2594 29.2813 43.9784 30.1893C43.2633 30.6962 43.0998 30.7413 42.7565 30.5268C42.2353 30.2013 41.9276 29.3001 42.148 28.7442C42.2425 28.5056 43.1222 27.5174 44.1026 26.5483L45.8849 24.7866L41.3314 20.2299L36.7778 15.6732L34.8871 17.5311C33.3306 19.0601 32.89 19.3887 32.3965 19.3887C30.8635 19.3887 30.5882 18.8079 30.5882 15.575V13.1142H24.2157H17.8431V15.4379ZM27.4922 17.8691C27.6506 20.2938 28.8104 21.8279 30.9612 22.4572C32.8231 23.0021 34.5343 22.4715 36.0716 20.8723L36.751 20.1654L38.9637 22.3719C40.1808 23.5856 41.1765 24.6729 41.1765 24.7883C41.1765 24.9036 40.8569 25.3021 40.4663 25.6738C39.5633 26.5327 38.8278 28.077 38.8255 29.1189C38.8214 30.8011 39.798 32.5644 41.171 33.3548L41.9304 33.7917L41.9945 37.2276C42.0531 40.3579 42.0975 40.7285 42.4933 41.3985L42.928 42.1338H40.4202H37.9126L38.2829 40.7123C38.8265 38.6256 38.6843 34.9872 37.9747 32.8201C36.4188 28.0691 32.3714 24.347 27.4961 23.1842C25.771 22.7727 22.648 22.7768 20.8824 23.1929C15.6839 24.4179 11.2906 28.8236 10.0855 34.0199C9.69431 35.7072 9.70196 39.1334 10.1006 40.6513C11.4243 45.6917 14.8698 49.4311 19.7059 51.0762C20.9663 51.5048 21.7398 51.6272 23.6425 51.6981C26.4996 51.805 28.4443 51.3927 30.8273 50.1748L32.3529 49.395V50.6413V51.8876L31.5506 52.016C29.1059 52.4068 27.4643 54.3993 27.4553 56.9868L27.451 58.2123H24.2416H21.032L20.9398 56.7907C20.7622 54.0529 19.1949 52.2987 16.6578 51.9981C15.2139 51.8272 14.0575 52.2346 12.8473 53.3407C12.2755 53.8632 11.7333 54.2907 11.6424 54.2907C11.3971 54.2907 7.2549 50.117 7.2549 49.8699C7.2549 49.7534 7.52745 49.3989 7.86059 49.0823C11.2508 45.8591 9.20157 40.5744 4.55882 40.5672L3.33333 40.5652V37.3558V34.1462L4.78314 34.053C7.21451 33.8972 8.88569 32.5619 9.41588 30.3517C9.83 28.6258 9.31667 26.9785 7.95843 25.6738C7.57137 25.3021 7.2549 24.9036 7.2549 24.7883C7.2549 24.6729 8.25039 23.5858 9.46706 22.3727L11.679 20.1668L12.4573 20.9709C13.8743 22.4352 15.4673 22.9548 17.2375 22.5301C19.4476 21.9999 20.7829 20.3287 20.9388 17.8974L21.032 16.4476H24.2157H27.3994L27.4922 17.8691ZM26.8426 26.3568C34.2143 28.0946 37.8249 36.9438 33.7404 43.2632C31.5165 46.7044 28.2498 48.5005 24.2157 48.5005C21.7039 48.5005 19.9916 47.9899 17.9704 46.6379C12.0631 42.687 11.2408 34.4089 16.2573 29.3925C17.6888 27.9609 19.7357 26.7936 21.6112 26.3395C23.0349 25.9948 25.339 26.0025 26.8426 26.3568ZM22.4429 29.4662C19.2025 30.2534 16.8051 32.8325 16.2845 36.0909C15.7355 39.5272 17.6904 43.1258 20.9308 44.6444C21.942 45.1183 22.2826 45.173 24.2198 45.173C26.2594 45.173 26.4531 45.1374 27.6686 44.5389C29.2351 43.768 30.8014 42.1801 31.4992 40.6558C33.6459 35.967 30.832 30.4868 25.7257 29.4115C24.4508 29.143 23.7231 29.1552 22.4429 29.4662ZM25.7843 32.7421C26.8161 33.0234 28.45 34.6832 28.7786 35.784C29.9876 39.8329 26.0045 43.4195 22.2439 41.6683C19.2565 40.2772 18.4631 36.5268 20.6522 34.1425C22.0188 32.654 23.7394 32.1844 25.7843 32.7421ZM51.8229 33.203C54.4451 33.9678 56.9743 35.3374 58.8586 37.013C59.7498 37.8056 59.768 37.8442 59.4971 38.3638C59.3437 38.6579 59.2177 39.0089 59.2169 39.1436C59.2151 39.4976 59.1233 39.4627 58.0755 38.7099C55.9451 37.1793 52.8125 36.057 49.8529 35.7642L48.4314 35.6234V37.3101V38.9966H49.3804C51.3769 38.9966 54.7933 40.2323 56.6557 41.6278L57.3312 42.1338H52.3347H47.3382L46.4369 41.2025C45.9412 40.6901 45.4371 40.0783 45.3169 39.8428C45.0178 39.2576 45.0255 34.0089 45.3261 33.4444C45.7847 32.5834 46.062 32.5005 48.1373 32.6032C49.41 32.6662 50.7033 32.8768 51.8229 33.203ZM86.5775 33.0074C87.0486 33.4785 87.0588 33.5548 87.0588 36.6493V39.8099L85.9506 40.9719L84.8424 42.1338L79.9212 42.1329L75 42.1319L75.5882 41.6403C77.0904 40.385 80.6165 39.1123 83.0392 38.9509L83.8235 38.8985L83.881 37.2548L83.9382 35.6109L82.5084 35.7485C79.5986 36.0287 76.8835 36.9574 74.5384 38.4744L73.1806 39.3529L72.8427 38.6034C72.6569 38.1913 72.561 37.7632 72.6298 37.6521C72.6984 37.5409 73.4641 36.9154 74.3312 36.2621C77.4263 33.9297 81.0763 32.6197 84.6657 32.5527C85.9422 32.5289 86.148 32.5778 86.5775 33.0074ZM69.5467 39.4378C69.8914 39.8185 70.3922 41.2929 70.3922 41.9266C70.3922 42.066 68.979 42.1338 66.0784 42.1338C63.7059 42.1338 61.7647 42.0617 61.7647 41.9734C61.7647 41.885 61.9027 41.3336 62.0714 40.748C62.5594 39.0523 62.6898 38.9966 66.1639 38.9966C69.0088 38.9966 69.1659 39.017 69.5467 39.4378ZM58.0392 50.173V55.075H47.3378H36.6365L36.0633 54.5019L35.4902 53.9287V50.2146C35.4902 46.7852 35.5206 46.4619 35.8863 45.997C36.1041 45.7199 36.479 45.4554 36.7196 45.4089C36.96 45.3625 41.8553 45.3125 47.598 45.2978L58.0392 45.2711V50.173ZM70.9347 50.2221L70.9873 55.075H66.1798H61.3726V50.1695V45.264L66.1274 45.3166L70.8824 45.3691L70.9347 50.2221ZM95.4645 45.4597C96.6114 45.7887 96.6535 45.9556 96.6604 50.2003C96.6661 53.7048 96.6329 54.0929 96.292 54.514L95.9173 54.977L85.0174 55.0309L74.1176 55.0846V50.3085C74.1176 47.6817 74.1765 45.4736 74.2484 45.4019C74.4576 45.1925 94.7255 45.2478 95.4645 45.4597ZM58.0392 64.6829V71.1534H59.7059H61.3726V64.6829V58.2123H66.1775H70.9824L70.9324 77.575L70.8824 96.9378L67.5957 96.9915L64.3092 97.0452L64.4312 96.0074C64.4982 95.4364 64.4639 94.6458 64.3547 94.2503C64.1655 93.5654 64.1822 93.5223 64.7059 93.3397C65.522 93.0552 66.8743 91.7527 67.2812 90.8593C67.9357 89.4225 67.6641 87.0491 66.7269 86.0136C66.4349 85.6909 66.4349 85.6356 66.7269 85.3129C67.6686 84.2723 67.9355 81.9054 67.2751 80.4513C67.0751 80.0113 66.5841 79.333 66.1837 78.9442C65.0361 77.8295 64.1416 77.624 60.439 77.624C57.9416 77.624 57.2451 77.5691 57.3249 77.3789C58.5063 74.5589 58.1206 72.4874 56.2353 71.5256C55.4737 71.137 55.2016 71.1252 48.752 71.2007C42.6231 71.2725 41.928 71.3152 40.5078 71.7066C39.6549 71.9415 38.8827 72.1338 38.7922 72.1338C38.5988 72.1338 38.5653 58.5358 38.7582 58.343C38.83 58.2711 43.1977 58.2123 48.4641 58.2123H58.0392V64.6829ZM93.5294 77.0248V95.8374L93.0563 96.3876L92.5831 96.9378H83.3994H74.2157L74.1657 77.575L74.1157 58.2123H83.8225H93.5294V77.0248ZM9.60784 72.7221V74.2907H11.2745H12.9412V72.7221V71.1534H11.2745H9.60784V72.7221ZM16.0784 72.7221V74.2907H17.7451H19.4118V72.7221V71.1534H17.7451H16.0784V72.7221ZM54.79 74.4642C54.969 74.7538 54.488 75.9225 53.9439 76.5207C53.152 77.3913 52.3833 77.624 50.3004 77.624H48.4314V79.186V80.7479L55.9975 80.8036L63.5637 80.8593L64.0367 81.4095C64.6696 82.1454 64.6376 82.8205 63.9367 83.5215L63.3635 84.0946H55.8974H48.4314V85.6632V87.2319H55.8974H63.3635L63.9367 87.805C64.6376 88.506 64.6696 89.1811 64.0367 89.917L63.5637 90.4672L55.9975 90.5229L48.4314 90.5785V92.1405V93.7025H54.2873C59.8241 93.7025 60.17 93.7236 60.6361 94.0901C61.6696 94.903 61.3428 96.4607 60.0578 96.8456C59.5124 97.0089 56.4663 97.0489 49.1118 96.9891L38.9216 96.9062L37.0451 96.4031C36.0131 96.1262 34.5351 95.5807 33.7608 95.1909L32.3529 94.4819V87.847V81.2123L32.9631 80.3697C34.1649 78.7109 36.2863 76.9487 38.3357 75.9068C39.5394 75.2948 41.8131 74.6583 43.3869 74.4929C45.4102 74.2801 54.662 74.257 54.79 74.4642ZM29.0196 88.9003V97.0395L19.3627 96.9885L9.70588 96.9378L9.65451 89.095C9.62627 84.7815 9.64569 81.1417 9.69745 81.0068C9.77098 80.8148 11.8884 80.7613 19.4057 80.7613H29.0196V88.9003Z" fill="url(#paint0_linear_5_71)"/>
<defs>
<linearGradient id="paint0_linear_5_71" x1="0" y1="0" x2="100" y2="110" gradientUnits="userSpaceOnUse">
<stop stop-color="#0BE3F7"/>
<stop offset="1" stop-color="#0874FC"/>
</linearGradient>
</defs>
</svg>
