<svg width="93" height="103" viewBox="0 0 93 103" fill="none" xmlns="http://www.w3.org/2000/svg">
<path d="M71.3393 88.7523H72.9679C78.1252 88.7523 78.8038 80.1547 72.9679 80.1547H69.7106C64.6076 80.1547 64.5533 71.8301 69.7106 71.8301H71.3393M71.3393 88.7523H66.0462M71.3393 88.7523V92.5735M76.9038 71.8301H71.3393M71.3393 71.8301V68.1454M30.344 84.7115H48.7353M30.344 73.3399H53.2278M30.344 62.5298H80.3233M29.6421 28.1339L80.3233 25.0453M29.0805 16.9027L79.0597 13.814M19.3935 64.5V96.364C19.3935 99.593 21.0782 100.857 23.8861 100.857H86.7813C90.1506 100.857 90.8526 98.3295 90.8526 96.0832V44.4193L84.9562 52.2812L77.9366 48.4906L67.2669 55.791L59.2646 49.1926L47.8929 47.6483L42.5581 56.2122L32.7307 47.2271L27.5 48.9707M27.5 38.4875L32.7307 36.417L42.5581 43.7173L47.8929 36.417L59.2646 37.5401L67.2669 43.7173L77.9366 36.417L84.9562 39.7864L90.8526 30.2398C90.3846 24.9985 89.4768 14.3195 89.0275 8.47919C88.7575 4.96942 87.062 1.70531 82.008 2.0212C64.0379 3.14433 25.8234 5.53097 21.7802 5.53097C17.7369 5.53097 16.9133 9.08754 17.0069 10.8658L18.3621 29.5M2 35L23.8861 56.8861M23.8861 35L2 56.8861" stroke="url(#paint0_linear_5_209)" stroke-width="4"/>
<defs>
<linearGradient id="paint0_linear_5_209" x1="17" y1="2" x2="91" y2="101" gradientUnits="userSpaceOnUse">
<stop stop-color="#0BE3F7"/>
<stop offset="1" stop-color="#0874FC"/>
</linearGradient>
</defs>
</svg>
